<svg id="Слой_1" data-name="Слой 1" xmlns="http://www.w3.org/2000/svg" viewBox="0 0 90.3 90.32"><defs><style>.cls-1{fill:#333c84;}</style></defs><title>Forma 1-1</title><path class="cls-1" d="M28.42,50.79c0-27.67,18-28,18.13-28H57.81c3.83,0,18.13,4.75,18.13,28v11.4H79V50.79c0-9.22-2.12-16.71-6.31-22.27a22.91,22.91,0,0,0-11.06-8.09,4.29,4.29,0,0,0-1.62-5.71l0,0,4.81-9.62a1.54,1.54,0,0,0,.09-1.19A1.53,1.53,0,0,0,64.14,3L58.5,0.16a1.61,1.61,0,0,0-1.39,0L52.18,2.63,47.24,0.17a1.57,1.57,0,0,0-1.39,0L40.23,3a1.56,1.56,0,0,0-.7,2.09l4.81,9.62a4.33,4.33,0,0,0-1.69,5.68,21.05,21.05,0,0,0-10.87,7.31c-4.3,5.44-6.47,13.21-6.47,23.11v3h3.11v-3ZM46.56,17.18H57.81a1.26,1.26,0,0,1,0,2.51H46.56A1.26,1.26,0,1,1,46.56,17.18Zm1-3.12-4.5-9L46.56,3.3l4.93,2.46a1.56,1.56,0,0,0,1.39,0L57.81,3.3l3.54,1.77-4.5,9H47.53Z"/><rect class="cls-1" x="5.63" y="75.96" width="3.11" height="3.11"/><path class="cls-1" d="M53.86,52.52a1.37,1.37,0,0,0,1.37-1.37V48.37h2.7a1.41,1.41,0,0,0,0-2.82h-2.7V44.18h2.7a1.41,1.41,0,0,0,0-2.81h-2.7V40A6.11,6.11,0,1,0,43,40a1.37,1.37,0,0,0,1.33,1.41h0a1.38,1.38,0,0,0,1.37-1.33s0,0,0-.07A3.38,3.38,0,0,1,49,36.53h0.08a3.38,3.38,0,0,1,3.37,3.3c0,0.05,0,.11,0,0.16v1.39h-2.7a1.4,1.4,0,0,0-1.35,1.46,1.42,1.42,0,0,0,1.35,1.35h2.69v1.37h-2.7A1.41,1.41,0,0,0,48.44,47a1.42,1.42,0,0,0,1.36,1.35h2.69v2.78A1.37,1.37,0,0,0,53.86,52.52Z"/><rect class="cls-1" x="11.25" y="75.96" width="3.11" height="3.11"/><path class="cls-1" d="M84.52,61.89L65,67.94a2.08,2.08,0,0,0,0-.27,5.79,5.79,0,0,0-5.77-5.78H46.83L31.39,56.27H20a3,3,0,0,0-3-2.81H0v3.11H16.88v25H0V84.7H17a3,3,0,0,0,3-2.82H25.2l23.88,8.43h3.49L88.08,71.85l0.36-.27a6.35,6.35,0,0,0,1.86-3.9h0A5.79,5.79,0,0,0,84.52,61.89ZM49.63,87.21L25.75,78.78H20V59.38H30.81L46.25,65h13a2.67,2.67,0,0,1,0,5.33H43.74A5.79,5.79,0,0,0,38,76.11v0.15h3.11V76.11a2.67,2.67,0,0,1,2.66-2.67H59.22a5.77,5.77,0,0,0,4.11-1.74L84.74,65a2.67,2.67,0,0,1,2.45,2.63,3.12,3.12,0,0,1-.81,1.58l-34.58,18H49.63Z"/></svg>