<svg id="Слой_1" data-name="Слой 1" xmlns="http://www.w3.org/2000/svg" viewBox="0 0 90 84"><defs><style>.cls-1{fill:#333c84;}</style></defs><title>Forma 1-1</title><path class="cls-1" d="M88.5,0h-75A1.5,1.5,0,0,0,12,1.5V6H7.5A1.5,1.5,0,0,0,6,7.5V12H1.5A1.5,1.5,0,0,0,0,13.5v39A1.5,1.5,0,0,0,1.5,54h75A1.5,1.5,0,0,0,78,52.5V48h4.5A1.5,1.5,0,0,0,84,46.5V42h4.5A1.5,1.5,0,0,0,90,40.5V1.5A1.5,1.5,0,0,0,88.5,0ZM75,15V51H3V15H75Zm1.5-3H9V9H81V45H78V13.5A1.5,1.5,0,0,0,76.5,12Zm6-6H15V3H87V39H84V7.5A1.5,1.5,0,0,0,82.5,6Z"/><path class="cls-1" d="M7.5,65h-6A1.5,1.5,0,0,0,0,66.5v8A1.5,1.5,0,0,0,1.5,76h6A1.5,1.5,0,0,0,9,74.5v-8A1.5,1.5,0,0,0,7.5,65ZM6,68v5H3V68H6Z"/><path class="cls-1" d="M7.5,40.5a6,6,0,0,1,6,6A1.5,1.5,0,0,0,15,48H63a1.5,1.5,0,0,0,1.5-1.5,6,6,0,0,1,6-6A1.5,1.5,0,0,0,72,39V27a1.5,1.5,0,0,0-1.5-1.5,6,6,0,0,1-6-6A1.5,1.5,0,0,0,63,18H15a1.5,1.5,0,0,0-1.5,1.5,6,6,0,0,1-6,6A1.5,1.5,0,0,0,6,27V39A1.5,1.5,0,0,0,7.5,40.5ZM9,28.38A9.08,9.08,0,0,0,16.38,21H61.62A9.08,9.08,0,0,0,69,28.38v9.24A9.08,9.08,0,0,0,61.62,45H16.38A9.08,9.08,0,0,0,9,37.62V28.38Z"/><path class="cls-1" d="M39,65H33a1.5,1.5,0,0,0-1.5,1.5v8A1.5,1.5,0,0,0,33,76h6a1.5,1.5,0,0,0,1.5-1.5v-8A1.5,1.5,0,0,0,39,65Zm-1.5,3v5h-3V68h3Z"/><path class="cls-1" d="M31.58,31.11a1.24,1.24,0,0,0,1.23-1.23,3.56,3.56,0,1,1,7.12,0v1.55H37.06a1.26,1.26,0,0,0,0,2.51h2.87v1.67H37.06a1.26,1.26,0,1,0,0,2.52h2.87V41a1.23,1.23,0,0,0,2.47,0V38.11h2.88a1.26,1.26,0,1,0,0-2.52H42.4V33.92h2.88a1.26,1.26,0,1,0,0-2.51H42.4V29.87a6,6,0,1,0-12.06,0A1.24,1.24,0,0,0,31.58,31.11Z"/><path class="cls-1" d="M24,65H18a1.5,1.5,0,0,0-1.5,1.5v8A1.5,1.5,0,0,0,18,76h6a1.5,1.5,0,0,0,1.5-1.5v-8A1.5,1.5,0,0,0,24,65Zm-1.5,3v5h-3V68h3Z"/><path class="cls-1" d="M89.4,69.3l-15-10.5A1.5,1.5,0,0,0,72,60v5H45a1.5,1.5,0,0,0-1.5,1.5v8A1.5,1.5,0,0,0,45,76H72v6.5a1.51,1.51,0,0,0,.87,1.36,1.56,1.56,0,0,0,.63.14,1.48,1.48,0,0,0,1-.35l15-12A1.5,1.5,0,0,0,89.4,69.3ZM73.53,73h-27V68h27A1.5,1.5,0,0,0,75,66.5V63l11,7.56L75,79.3V74.5A1.5,1.5,0,0,0,73.53,73Z"/></svg>