<svg id="Слой_1" data-name="Слой 1" xmlns="http://www.w3.org/2000/svg" viewBox="0 0 88.72 67.72"><defs><style>.cls-1{fill:#333c84;}</style></defs><title>Forma 1-1</title><path class="cls-1" d="M81.85,20.39H72V6.85A6.88,6.88,0,0,0,65.18,0H6.87A6.88,6.88,0,0,0,0,6.85V40.48a6.88,6.88,0,0,0,6.87,6.85h9.8V60.87a6.88,6.88,0,0,0,6.87,6.85h58.3a6.88,6.88,0,0,0,6.87-6.85V27.24A6.88,6.88,0,0,0,81.85,20.39ZM3,10.24V6.85A3.87,3.87,0,0,1,6.87,3h58.3A3.86,3.86,0,0,1,69,6.85v3.63H3V10.24ZM17.6,23.74l-0.27.57a6.84,6.84,0,0,0-.66,2.93V44.33H6.87A3.87,3.87,0,0,1,3,40.48V23.4H17.76ZM3.65,20.4H3V13.49H69v6.9H3.65ZM85.71,60.87a3.87,3.87,0,0,1-3.86,3.85H23.54a3.87,3.87,0,0,1-3.86-3.85V27.24a3.85,3.85,0,0,1,3.55-3.84H81.84a3.87,3.87,0,0,1,3.86,3.85V60.87Zm-33-9.59,0.4,0.33a9.72,9.72,0,0,0,13.62-1.48,9.69,9.69,0,0,0-1.48-13.61h0a9.69,9.69,0,0,0-12.14,0l-0.4.32-0.41-.32a9.68,9.68,0,1,0,0,15.09Zm6.47-13.91a6.69,6.69,0,1,1,0,13.37h0A6.69,6.69,0,0,1,59.17,37.36ZM50.55,48.5h0L50.79,49l-0.42.33A6.68,6.68,0,0,1,41,48.2a6.69,6.69,0,0,1,9.4-9.39l0.42,0.33-0.25.47A9.63,9.63,0,0,0,50.55,48.5Z"/></svg>