<svg id="Слой_1" data-name="Слой 1" xmlns="http://www.w3.org/2000/svg" viewBox="0 0 87.34 77.59"><defs><style>.cls-1{fill:#333c84;}</style></defs><title>Forma 1-1</title><path class="cls-1" d="M69.86,71a10.34,10.34,0,0,0,14.5,0,9.93,9.93,0,0,0,.15-14l-2.21-2.18a1.54,1.54,0,0,0-1.08-.44,1.56,1.56,0,0,0-1.09.45,1.45,1.45,0,0,0,0,2l2.08,2.05a7,7,0,0,1,.12,9.93l-0.12.12a7.22,7.22,0,0,1-10.14,0L42.43,39.77l-0.29-.29,0.31-.27,0.81-.71c4.79-4.2,9.08-6.2,11-6.29h0.26L55,32.33l0.12,0,0.08,0.09,0.15,0.18a1.56,1.56,0,0,0,2.06-.1,1.48,1.48,0,0,0,.15-2.11l-0.15-.17,0-.05,0-.06-0.11-.27c-0.5-1.72,1.18-6.41,6.44-11.57,4.68-4.62,8.81-6.19,10.52-6.39l0.38,0,0.15,0,0.12,0.09,0.73,0.52a2,2,0,0,0,1.08.32,2,2,0,0,0,1.4-.57,1.42,1.42,0,0,0,.42-1,1.44,1.44,0,0,0-.42-1,4.31,4.31,0,0,0-1.84-1l-0.16,0L76,9.07,75.95,9l-0.14-.1A48.43,48.43,0,0,0,48.25.37V0h0V0.37A48.65,48.65,0,0,0,16.33,12.3l-0.7.61-0.27.23-0.25-.25L12.2,10A1.56,1.56,0,0,0,10,10a1.45,1.45,0,0,0,0,2.05L13,15l0.26,0.26L13,15.52l-0.65.71A46.71,46.71,0,0,0,8.66,74.95l0.1,0.14,0,0.05,0,0.06,0,0.17a4.07,4.07,0,0,0,1,1.78,1.53,1.53,0,0,0,1.08.43,1.55,1.55,0,0,0,1.09-.44,1.82,1.82,0,0,0,.24-2.36L12,74.36,11.75,74l-0.09-.12,0-.15,0-.39C12,71.15,14.11,67.07,18.22,63c4.48-4.4,8.86-6.41,11-6.41a2.47,2.47,0,0,1,.66.08l0.22,0.06,0.09,0,0.07,0.06L30.46,57a1.58,1.58,0,0,0,2.15,0,1.48,1.48,0,0,0,.53-1,1.43,1.43,0,0,0-.36-1l-0.28-.31-0.09-.1v-0.6c0.13-2,2.26-6.37,6.65-11.2l0.7-.77L40,41.59l0.28,0.28ZM23.14,10.76l2.32-1.33A45.6,45.6,0,0,1,68.84,8.25l1.7,0.86,0.65,0.33-0.64.35-1.67.91a32.25,32.25,0,0,0-7.37,5.51,28.52,28.52,0,0,0-6.73,9.65l-0.52,1.22-0.2.46-0.39-.32-1-.83C47,21.88,36.1,14,25.87,12l-2.62-.52-1-.2Zm4,43-1.26.51a28.73,28.73,0,0,0-9.79,6.6,32.09,32.09,0,0,0-5.64,7.27l-0.91,1.6-0.35.61-0.32-.62L8,68.14a44.21,44.21,0,0,1,1.4-42.95L10.77,23l0.51-.85,0.19,1L12,25.65c2,10.62,10.78,22.08,14.46,26.52l0.87,1,0.33,0.4Zm11.8-15.38A41.91,41.91,0,0,0,30.61,49.5l-0.7,1.35-0.27.51-0.37-.45-1-1.18C16.67,35.47,11.57,21.08,16.44,16.27a7.37,7.37,0,0,1,5.36-1.81c6.78,0,17.61,5.25,28.28,13.71l1.23,1,0.47,0.37-0.54.27-1.41.7A40.43,40.43,0,0,0,38.94,38.43Z"/></svg>