<svg id="Слой_1" data-name="Слой 1" xmlns="http://www.w3.org/2000/svg" viewBox="0 0 89.27 63.3"><defs><style>.cls-1{fill:#333c84;}</style></defs><title>Forma 1-1</title><path class="cls-1" d="M74.44,31.92a5.23,5.23,0,1,0,5.22,5.24A5.21,5.21,0,0,0,74.44,31.92Zm0,7.47h0a2.23,2.23,0,0,1-2.23-2.22,2.24,2.24,0,0,1,2.22-2.24A2.23,2.23,0,0,1,74.42,39.39Z"/><path class="cls-1" d="M28.57,39.86a1.4,1.4,0,0,0,1.05.44h30a2.89,2.89,0,0,0,.88-0.05,1.5,1.5,0,0,0,1.06-1.84,1.61,1.61,0,0,0-.72-0.95,1.46,1.46,0,0,0-1.14-.18H29.63a1.5,1.5,0,0,0-1.07.44A1.5,1.5,0,0,0,28.57,39.86Z"/><path class="cls-1" d="M21,12a1.54,1.54,0,0,0,2.14.14l4.06-3.58a1.5,1.5,0,0,0-.91-2.62H26.19a1.5,1.5,0,0,0-1,.38L21.13,9.86A1.5,1.5,0,0,0,21,12Z"/><path class="cls-1" d="M20.63,18.09A1.49,1.49,0,0,0,21,19.16a1.59,1.59,0,0,0,2.14.06L34.57,8.5A1.52,1.52,0,0,0,35,7.44a1.46,1.46,0,0,0-.41-1.06,1.52,1.52,0,0,0-1.11-.48,1.49,1.49,0,0,0-1,.41L21.07,17.07A1.49,1.49,0,0,0,20.63,18.09Z"/><path class="cls-1" d="M19.66,37.16a5.24,5.24,0,0,0-5.21-5.24h0A5.23,5.23,0,1,0,19.66,37.16Zm-5.23,2.23h0a2.23,2.23,0,1,1,2.23-2.23,2.24,2.24,0,0,1-2.23,2.23Z"/><path class="cls-1" d="M89.27,39.73V29.33A6.9,6.9,0,0,0,85.05,23l-1.39-.58L84.33,22a21.51,21.51,0,0,0,2.93-1.92,1.5,1.5,0,0,0-1.87-2.34,24.08,24.08,0,0,1-5.29,3L80,20.8l-0.41-.15-0.06-.14-7-15.13A9.4,9.4,0,0,0,64,0H25.22a9.44,9.44,0,0,0-8.44,5.34L9.52,20.81,9.2,20.68a23,23,0,0,1-5.33-3.07,1.53,1.53,0,0,0-2.14.2,1.49,1.49,0,0,0,.21,2.1,21.14,21.14,0,0,0,2.94,2l0.68,0.38-1.12.43A6.9,6.9,0,0,0,0,29.15V39.74A11.73,11.73,0,0,0,7.27,50.58L7.5,50.67v3.62a9,9,0,0,0,18,0v-2.8H63.75v2.8a9,9,0,0,0,18,0V50.67L82,50.58A11.74,11.74,0,0,0,89.27,39.73ZM19.52,6.61A6.34,6.34,0,0,1,25.22,3H64a6.31,6.31,0,0,1,5.71,3.64L76.86,22l-0.39.13c-8.31,2.74-19.88,4.32-31.75,4.32-12,0-23.69-1.6-32-4.39l-0.39-.13Zm3,47.68a6,6,0,0,1-12,0V51.42l0.63,0c0.25,0,.46,0,0.68,0H22.5v2.8Zm56.25,0a6,6,0,0,1-12,0v-2.8H77.44l0.64,0,0.66,0v2.88Zm-1.29-5.8H11.81A8.81,8.81,0,0,1,3,39.74V29.16a3.94,3.94,0,0,1,2.51-3.66L9.41,24l0.13,0.05c8.75,3.41,21.57,5.36,35.18,5.36S71,27.48,79.78,24.09L79.92,24l0.14,0.06,3.8,1.62a3.89,3.89,0,0,1,2.39,3.61V39.74A8.81,8.81,0,0,1,77.46,48.49Z"/></svg>