<svg xmlns="http://www.w3.org/2000/svg" width="20" height="20"><path d="M0 3a3 3 0 0 1 3-3h14a3 3 0 0 1 3 3v14a3 3 0 0 1-3 3H3a3 3 0 0 1-3-3V3zm2-1h16v16H2V2zm9 5a1 1 0 0 1 1-1h2a1 1 0 0 1 1 1 1 1 0 0 1-1 1h-2a1 1 0 0 1-1-1zm0 6a1 1 0 0 1 1-1h2a1 1 0 0 1 1 1 1 1 0 0 1-1 1h-2a1 1 0 0 1-1-1zm-5 1h1v1H6v-1zm-1-1h1v1H5v-1zm2 0h1v1H7v-1zm1-1h1v1H8v-1zm-2 1h1v1H6v-1zm-1-1h1v1H5v-1zm2 0h1v1H7v-1zm1-1h1v1H8v-1zM6 9h1v1H6V9zM5 8h1v1H5V8zm2 0h1v1H7V8zm1-1h1v1H8V7zM6 8h1v1H6V8zM5 7h1v1H5V7zm2 0h1v1H7V7zm1-1h1v1H8V6z" fill="#393939" fill-rule="evenodd" opacity=".5"/></svg>