<svg xmlns="http://www.w3.org/2000/svg" width="17" height="21"><path d="M14.868 0h-3.32a.247.247 0 0 0-.236.256v2.055a.247.247 0 0 0 .236.257h2.372a.739.739 0 0 1 .709.768v9.941a.74.74 0 0 1-.709.768H3.08a.74.74 0 0 1-.709-.768V3.336a.739.739 0 0 1 .709-.768h2.372a.247.247 0 0 0 .236-.257V.256A.247.247 0 0 0 5.452 0h-3.32A2.226 2.226 0 0 0 0 2.309v13.023a.246.246 0 0 0 .236.256h16.528a.246.246 0 0 0 .236-.256V2.309A2.226 2.226 0 0 0 14.868 0zm-1.894 4.1H4.026a.247.247 0 0 0-.237.256v7.892a.247.247 0 0 0 .237.256h8.948a.246.246 0 0 0 .236-.256V4.36a.246.246 0 0 0-.236-.26zM6.726 6.666h-.567v.615a.712.712 0 1 1-1.419 0V5.9a.741.741 0 0 1 .71-.768h1.276a.77.77 0 0 1 0 1.538zm2.931-6.67H7.343a.247.247 0 0 0-.236.256v2.055a.247.247 0 0 0 .236.257h2.314a.247.247 0 0 0 .236-.257V.252A.247.247 0 0 0 9.657 0zm7.107 17.125H.236a.246.246 0 0 0-.236.256v2.851a.741.741 0 0 0 .709.768h15.582a.741.741 0 0 0 .709-.768v-2.851a.247.247 0 0 0-.236-.252zm-6.112 2.706h-4.3a.771.771 0 0 1 0-1.537h4.3a.771.771 0 0 1 0 1.541z" fill="#757575" fill-rule="evenodd"/></svg>