<svg xmlns="http://www.w3.org/2000/svg" width="13" height="18"><path d="M12.13 7.454l-5.62 7.922a2.725 2.725 0 0 1-4.28.443 4.06 4.06 0 0 1-.38-5.067l6.11-8.611a1.7 1.7 0 0 1 2.67-.277 2.539 2.539 0 0 1 .24 3.167l-5.13 7.233a.683.683 0 0 1-1.07.111 1.018 1.018 0 0 1-.09-1.267l4.64-6.544-.88-.867-4.64 6.544a2.539 2.539 0 0 0 .24 3.165 1.7 1.7 0 0 0 2.67-.277l5.13-7.233a4.074 4.074 0 0 0-.37-5.068 2.724 2.724 0 0 0-4.28.444L.98 9.883a5.6 5.6 0 0 0 .52 6.968 3.741 3.741 0 0 0 5.88-.61L13 8.319z" fill="#e1b400" fill-rule="evenodd"/></svg>