<svg xmlns="http://www.w3.org/2000/svg" width="20" height="20"><path d="M8.5 0A2.463 2.463 0 0 0 6 2.476a2.417 2.417 0 0 0 .5 1.486h4a2.417 2.417 0 0 0 .5-1.486A2.463 2.463 0 0 0 8.5 0M16 2.383a4.116 4.116 0 0 0-3.591 2.756 5.989 5.989 0 0 0-1.312-.186h-2.9a6.533 6.533 0 0 0-6.12 4.489 3.327 3.327 0 0 1-.063-.526.986.986 0 0 0-.365-.79 1.006 1.006 0 0 0-.852-.2.992.992 0 0 0-.781.991 3.835 3.835 0 0 0 1.561 3.313c.071.046.147.053.219.093a5.931 5.931 0 0 0 2.123 3.715 1.453 1.453 0 0 1 .5 1.3v.186a1.67 1.67 0 0 0 1.28 1.981l2 .4s.118-.489.218-1.084a.792.792 0 0 1 1.093-.588c.3 0 .693.093 1.093.093a5.858 5.858 0 0 0 1.312-.093.683.683 0 0 1 .78.5c.1.5.313 1.27.313 1.27l2-.372a1.693 1.693 0 0 0 1.312-1.981v-.22a.87.87 0 0 1 .374-.9 5.3 5.3 0 0 0 1.218-1.486 1.392 1.392 0 0 1 1.28-.774h.313a.94.94 0 0 0 1-.991V10.9a.81.81 0 0 0-1-.8.343.343 0 0 0-.313-.186 1.508 1.508 0 0 1-1-.9 5.822 5.822 0 0 0-1.873-2.384 4.162 4.162 0 0 0-.719 1.888 9.642 9.642 0 0 1 .906-6.13m0 7.524a.991.991 0 1 1-1 .99.94.94 0 0 1 1-.99" fill-rule="evenodd"/></svg>