<svg xmlns="http://www.w3.org/2000/svg" width="36" height="30"><path d="M34.593 5.967a4.717 4.717 0 0 0-3.394-1.352H27l-.956-2.452a3.385 3.385 0 0 0-1.3-1.524A3.429 3.429 0 0 0 22.8 0h-9.6a3.423 3.423 0 0 0-1.94.64 3.373 3.373 0 0 0-1.3 1.524L9 4.615H4.8a4.718 4.718 0 0 0-3.394 1.352A4.363 4.363 0 0 0 0 9.23v16.155a4.367 4.367 0 0 0 1.406 3.264A4.722 4.722 0 0 0 4.8 30h26.4a4.722 4.722 0 0 0 3.394-1.352A4.367 4.367 0 0 0 36 25.385V9.23a4.363 4.363 0 0 0-1.407-3.263zM23.934 23.014a8.609 8.609 0 0 1-11.868 0 7.837 7.837 0 0 1 0-11.412 8.611 8.611 0 0 1 11.868 0 7.834 7.834 0 0 1 0 11.412zM18 12.115a5.305 5.305 0 0 0-3.815 1.524 5.039 5.039 0 0 0 0 7.338 5.541 5.541 0 0 0 7.631 0 5.041 5.041 0 0 0 0-7.338A5.309 5.309 0 0 0 18 12.115z" fill="#424242" fill-rule="evenodd"/></svg>