<svg xmlns="http://www.w3.org/2000/svg" width="17" height="18"><path d="M14.997 9.882a6.3 6.3 0 0 0 0-1.764l1.844-1.485a.463.463 0 0 0 .105-.576l-1.748-3.114a.433.433 0 0 0-.533-.2l-2.175.9a6.357 6.357 0 0 0-1.477-.882L10.681.376A.43.43 0 0 0 10.25 0h-3.5a.43.43 0 0 0-.428.378L5.99 2.763a6.64 6.64 0 0 0-1.477.882l-2.176-.9a.421.421 0 0 0-.533.2L.057 6.059a.451.451 0 0 0 .1.576L2 8.12a6.407 6.407 0 0 0 0 1.764L.157 11.369a.462.462 0 0 0-.1.576l1.747 3.114a.433.433 0 0 0 .533.2l2.176-.9a6.316 6.316 0 0 0 1.477.882l.332 2.385a.43.43 0 0 0 .428.378h3.5a.43.43 0 0 0 .428-.378l.332-2.385a6.686 6.686 0 0 0 1.477-.882l2.175.9a.421.421 0 0 0 .533-.2l1.748-3.114a.463.463 0 0 0-.105-.576zM8.505 12.15A3.151 3.151 0 1 1 11.563 9a3.109 3.109 0 0 1-3.058 3.15z" fill="#e30045" fill-rule="evenodd"/></svg>