<svg xmlns="http://www.w3.org/2000/svg" width="20" height="16"><path d="M10 .013a1.9 1.9 0 0 0-2 1.763 1.738 1.738 0 0 0 1 1.515v10.944H2V16h16.01v-1.765H11V3.291a1.72 1.72 0 0 0 1-1.515 1.889 1.889 0 0 0-2-1.763M.99.895v1.763h2.57L.99 7.947h-1a4.038 4.038 0 0 0 8.01 0H7L4.44 2.658h2.75a2.14 2.14 0 0 1 0-1.763H.99m11.83 0a2.14 2.14 0 0 1 0 1.763h2.75l-2.56 5.289H12a4.038 4.038 0 0 0 8.01 0h-1l-2.56-5.289h2.56V.895h-6.19M4 4.421l1.59 3.526H2.4L4 4.421m12.01 0l1.59 3.526h-3.19l1.6-3.526" fill="#424242" fill-rule="evenodd"/></svg>