<svg xmlns="http://www.w3.org/2000/svg" width="26" height="33"><path d="M1.509 24.347a3.039 3.039 0 0 0 3.019 3.043H16.6a3.04 3.04 0 0 0 3.019-3.043V6.086H1.509v18.261zM21.131 1.521h-5.283L14.339 0H6.792l-1.51 1.522H0v3.043h21.132V1.522zM17.436 14.71A10.153 10.153 0 1 1 6.871 24.855 10.361 10.361 0 0 1 17.436 14.71zm.574 2.282a8.011 8.011 0 1 0 8 8.011 8.017 8.017 0 0 0-8-8.011zM22 27.428l-1.569 1.562L18 26.564l-2.438 2.426-1.568-1.562L16.426 25l-2.437-2.426 1.568-1.561L18 23.441l2.437-2.426L22 22.576 19.563 25z" fill-rule="evenodd"/></svg>