<svg xmlns="http://www.w3.org/2000/svg" width="7" height="7" viewBox="0 0 7 7">
  <metadata><?xpacket begin="﻿" id="W5M0MpCehiHzreSzNTczkc9d"?>
<x:xmpmeta xmlns:x="adobe:ns:meta/" x:xmptk="Adobe XMP Core 5.6-c138 79.159824, 2016/09/14-01:09:01        ">
   <rdf:RDF xmlns:rdf="http://www.w3.org/1999/02/22-rdf-syntax-ns#">
      <rdf:Description rdf:about=""/>
   </rdf:RDF>
</x:xmpmeta>
                                                                                                    
                                                                                                    
                                                                                                    
                                                                                                    
                                                                                                    
                                                                                                    
                                                                                                    
                                                                                                    
                                                                                                    
                                                                                                    
                                                                                                    
                                                                                                    
                                                                                                    
                                                                                                    
                                                                                                    
                                                                                                    
                                                                                                    
                                                                                                    
                                                                                                    
                                                                                                    
                           
<?xpacket end="w"?></metadata>
<defs>
    <style>
      .cls-1 {
        fill: #616161;
        fill-rule: evenodd;
      }
    </style>
  </defs>
  <path id="Прямоугольник_скругл._углы_11" data-name="Прямоугольник, скругл. углы 11" class="cls-1" d="M897.5,617a0.5,0.5,0,1,1-.5.5A0.5,0.5,0,0,1,897.5,617Zm3,0a0.5,0.5,0,1,1-.5.5A0.5,0.5,0,0,1,900.5,617Zm3,0a0.5,0.5,0,1,1-.5.5A0.5,0.5,0,0,1,903.5,617Zm-6,3a0.5,0.5,0,1,1-.5.5A0.5,0.5,0,0,1,897.5,620Zm3,0a0.5,0.5,0,1,1-.5.5A0.5,0.5,0,0,1,900.5,620Zm3,0a0.5,0.5,0,1,1-.5.5A0.5,0.5,0,0,1,903.5,620Zm0,3a0.5,0.5,0,1,1-.5.5A0.5,0.5,0,0,1,903.5,623Zm-3,0a0.5,0.5,0,1,1-.5.5A0.5,0.5,0,0,1,900.5,623Zm-3,0a0.5,0.5,0,1,1-.5.5A0.5,0.5,0,0,1,897.5,623Z" transform="translate(-897 -617)"/>
</svg>
