<svg xmlns="http://www.w3.org/2000/svg" width="22" height="22"><path d="M20.619 10.074a9.6 9.6 0 0 0-5.487-7.773l-1.224 2.135L10.401.027 11.008 0A11.007 11.007 0 0 1 22 10.074h-1.381zm-7.781-.934v.936h1.851v1.246h-1.851v1.2h1.851v1.225h-1.851v2a.752.752 0 0 1-1.5 0v-2H9.189v-1.225h2.149v-1.2H9.189v-1.246h2.149V9.14a2.173 2.173 0 0 0-4.345 0 .752.752 0 0 1-1.5 0 3.677 3.677 0 0 1 7.345 0zm-4.73 8.423l3.508 4.409-.608.028a11.024 11.024 0 0 1-11-10.084h1.381a9.618 9.618 0 0 0 5.5 7.774z" fill-rule="evenodd"/></svg>