<svg id="logo" xmlns="http://www.w3.org/2000/svg" width="113" height="36.063" viewBox="0 0 113 36.063">
  <metadata><?xpacket begin="﻿" id="W5M0MpCehiHzreSzNTczkc9d"?>
<x:xmpmeta xmlns:x="adobe:ns:meta/" x:xmptk="Adobe XMP Core 5.6-c138 79.159824, 2016/09/14-01:09:01        ">
   <rdf:RDF xmlns:rdf="http://www.w3.org/1999/02/22-rdf-syntax-ns#">
      <rdf:Description rdf:about=""/>
   </rdf:RDF>
</x:xmpmeta>
                                                                                                    
                                                                                                    
                                                                                                    
                                                                                                    
                                                                                                    
                                                                                                    
                                                                                                    
                                                                                                    
                                                                                                    
                                                                                                    
                                                                                                    
                                                                                                    
                                                                                                    
                                                                                                    
                                                                                                    
                                                                                                    
                                                                                                    
                                                                                                    
                                                                                                    
                                                                                                    
                           
<?xpacket end="w"?></metadata>
<defs>
    <style>
      .cls-1 {
        fill: #fff;
      }

      .cls-1, .cls-2, .cls-3 {
        fill-rule: evenodd;
      }

      .cls-2 {
        fill: #e31c47;
      }

      .cls-3 {
        fill: #dd2341;
      }
    </style>
  </defs>
  <path id="Фигура_43" data-name="Фигура 43" class="cls-1" d="M391,25.966h36.09V27.8H391V25.966ZM391,60.2h36.09v1.834H391V60.2Zm0-34.235h1.835V62.035H391V25.966Zm6.782,13.689h15.532v1.834H397.782V39.654Zm27.5-13.689h1.835V55.177h-1.835V25.966Zm-27.42,0H399.7v8.665h-1.835V25.966Zm6.782,6.831h8.67v1.834h-8.67V32.8Zm13.776,0h8.67v1.834h-8.67V32.8ZM397.862,53.343H399.7v8.665h-1.835V53.343ZM391,39.654h15.532v1.834H391V39.654ZM404.644,32.8h1.835V55.151h-1.835V32.8Zm13.776-6.831h1.835v15.5H418.42v-15.5ZM397.862,39.654H399.7v8.665h-1.835V39.654Zm13.7,13.689H427.09v1.834H411.558V53.343Zm6.862-6.858h1.835v8.665H418.42V46.485Zm-27.42,0h8.67v1.834H391V46.485Zm20.558,0h8.67v1.834h-8.67V46.485Z" transform="translate(-391 -25.969)"/>
  <path id="Фигура_43-2" data-name="Фигура 43" class="cls-2" d="M427.09,58.234H409.3a0.715,0.715,0,0,1-.718-0.718V43.934a0.715,0.715,0,0,1,.718-0.718h6.143V30.75H403.074v6.22a0.715,0.715,0,0,1-.718.718H395.5a0.715,0.715,0,0,1-.718-0.718V29.421h1.329v6.938h5.639v-6.22a0.715,0.715,0,0,1,.718-0.718h13.59a0.715,0.715,0,0,1,.718.718V43.827a0.715,0.715,0,0,1-.718.718h-6.144V56.9H427.09v1.329h0Z" transform="translate(-391 -25.969)"/>
  <path id="Фигура_632" data-name="Фигура 632" class="cls-1" d="M436.953,40.479h-1.765V38.36h1.765V37.7c0-3.487,2.162-4.5,4.654-4.5,0.927,0,1.874.111,2.889,0.132a25.89,25.89,0,0,0,2.625-.132l0.464,2.229a11.238,11.238,0,0,1-3.243.463c-0.949,0-1.7-.11-2.779-0.11-1.214,0-1.677.507-1.677,1.942v0.64h7.676V50.411h-2.955V40.479h-4.743V54.186h-2.911V40.479Zm13.874-2.119h2.933v1.28a7.038,7.038,0,0,1,4.036-1.589c3.684,0,3.926,2.229,3.926,4.724v7.637h-2.911V43.105c0-1.832-.353-2.494-1.963-2.494a6.3,6.3,0,0,0-3.088.949v8.851h-2.933V38.36Z" transform="translate(-391 -25.969)"/>
  <path id="Фигура_632-2" data-name="Фигура 632" class="cls-3" d="M467.55,38.621V50.15h-2.434V38.621h2.434Zm-1.26-2.288,1.723-1.725L466.29,32.9,464.6,34.609ZM479.3,43.105V50.15h2.39V42.775c0-2.528-.269-4.463-3.665-4.463a6.6,6.6,0,0,0-3.88,1.537l-0.417.314V38.621h-2.412V50.15h2.412V41.411l0.128-.076a6.576,6.576,0,0,1,3.221-.985C478.954,40.35,479.3,41.278,479.3,43.105Zm12.286-7.438,0.361-1.738a6.087,6.087,0,0,0-1.747-.208c-2.808,0-4.172,1.322-4.172,4.043v0.857H484.26v1.6h1.765V53.924h2.411V40.218h2.58v-1.6h-2.58V37.786c0-1.491.629-2.247,1.872-2.247A6.69,6.69,0,0,1,491.583,35.667Zm12.425,8.718c0,3.775-2.161,6.029-5.782,6.029-3.549,0-5.585-2.157-5.585-5.919,0-3.814,2.208-6.184,5.761-6.184C502.122,38.312,504.008,40.355,504.008,44.386Zm-2.477,0c0-2.824-1.076-4.256-3.195-4.256s-3.238,1.479-3.238,4.278c0,2.765,1.1,4.168,3.282,4.168C501.531,48.576,501.531,45.422,501.531,44.386Z" transform="translate(-391 -25.969)"/>
</svg>
