<svg xmlns="http://www.w3.org/2000/svg" width="547.38" height="487.2" viewBox="0 0 91.23 81.2">
  <metadata><?xpacket begin="﻿" id="W5M0MpCehiHzreSzNTczkc9d"?>
<x:xmpmeta xmlns:x="adobe:ns:meta/" x:xmptk="Adobe XMP Core 5.6-c138 79.159824, 2016/09/14-01:09:01        ">
   <rdf:RDF xmlns:rdf="http://www.w3.org/1999/02/22-rdf-syntax-ns#">
      <rdf:Description rdf:about=""/>
   </rdf:RDF>
</x:xmpmeta>
                                                                                                    
                                                                                                    
                                                                                                    
                                                                                                    
                                                                                                    
                                                                                                    
                                                                                                    
                                                                                                    
                                                                                                    
                                                                                                    
                                                                                                    
                                                                                                    
                                                                                                    
                                                                                                    
                                                                                                    
                                                                                                    
                                                                                                    
                                                                                                    
                                                                                                    
                                                                                                    
                           
<?xpacket end="w"?></metadata>
<defs>
    <style>
      .cls-1 {
        fill: #333c84;
        stroke: #fff;
        stroke-width: 1.2px;
        fill-rule: evenodd;
      }
    </style>
  </defs>
  <path id="Forma_1" data-name="Forma 1" class="cls-1" d="M1105.88,1343.83a50.026,50.026,0,0,0-61.17,3.46l-2.25-2.22a2.934,2.934,0,0,0-4.11,0,2.831,2.831,0,0,0,0,4.04l2.25,2.22a48.377,48.377,0,0,0-3.78,60.44,5.44,5.44,0,0,0,1.39,2.39,2.934,2.934,0,0,0,4.11,0,3.2,3.2,0,0,0,.4-4.14c-0.11-.14-0.22-0.29-0.33-0.44,0.19-1.6,1.8-5.33,6.09-9.56,5.02-4.93,9.35-6.26,10.35-5.98a2.951,2.951,0,0,0,4.03-.08,2.82,2.82,0,0,0,.2-4.02c0.09-1.39,1.79-5.37,6.29-10.33l28.83,28.36a11.779,11.779,0,0,0,16.43,0,11.307,11.307,0,0,0,0-16.16l-2.05-2.02a2.934,2.934,0,0,0-4.11,0,2.814,2.814,0,0,0,0,4.04l2.05,2.02a5.645,5.645,0,0,1,0,8.08,5.883,5.883,0,0,1-8.21,0l-28.83-28.36c4.91-4.3,8.83-5.89,10.19-5.95a0.053,0.053,0,0,1,.03.02,2.934,2.934,0,0,0,4-.09,2.849,2.849,0,0,0,.17-4.07c-0.28-.97,1.07-5.24,6.09-10.17,4.29-4.23,8.09-5.81,9.71-6l0.42,0.3a3.4,3.4,0,0,0,4.24-.37,2.831,2.831,0,0,0,0-4.04A5.648,5.648,0,0,0,1105.88,1343.83Zm-51.24,45.24a30.277,30.277,0,0,0-10.26,6.91,33.337,33.337,0,0,0-5.85,7.55,42.556,42.556,0,0,1,1.36-41.6C1041.67,1371.29,1048.51,1381.67,1054.64,1389.07Zm12.6-15.58a43.265,43.265,0,0,0-8.57,11.4c-12.31-15.09-15.69-27.94-11.97-31.61,3.87-3.8,17.03.28,31.81,12A41.9,41.9,0,0,0,1067.24,1373.49Zm22.59-22.23a30.023,30.023,0,0,0-7.02,10.09c-7.44-5.99-17.96-12.84-27.38-14.7a44.348,44.348,0,0,1,42.08-1.14A33.662,33.662,0,0,0,1089.83,1351.26Z" transform="translate(-1027.37 -1334.4)"/>
</svg>
