<svg xmlns="http://www.w3.org/2000/svg" width="541.2" height="505.2" viewBox="0 0 90.2 84.2">
  <metadata><?xpacket begin="﻿" id="W5M0MpCehiHzreSzNTczkc9d"?>
<x:xmpmeta xmlns:x="adobe:ns:meta/" x:xmptk="Adobe XMP Core 5.6-c138 79.159824, 2016/09/14-01:09:01        ">
   <rdf:RDF xmlns:rdf="http://www.w3.org/1999/02/22-rdf-syntax-ns#">
      <rdf:Description rdf:about=""/>
   </rdf:RDF>
</x:xmpmeta>
                                                                                                    
                                                                                                    
                                                                                                    
                                                                                                    
                                                                                                    
                                                                                                    
                                                                                                    
                                                                                                    
                                                                                                    
                                                                                                    
                                                                                                    
                                                                                                    
                                                                                                    
                                                                                                    
                                                                                                    
                                                                                                    
                                                                                                    
                                                                                                    
                                                                                                    
                                                                                                    
                           
<?xpacket end="w"?></metadata>
<defs>
    <style>
      .cls-1 {
        fill: #dd2341;
        stroke: #fff;
        stroke-width: 0.2px;
        fill-rule: evenodd;
      }
    </style>
  </defs>
  <path id="Forma_1" data-name="Forma 1" class="cls-1" d="M1498.5,1130.5a6,6,0,0,1-6-6,1.5,1.5,0,0,0-1.5-1.5h-48a1.5,1.5,0,0,0-1.5,1.5,6,6,0,0,1-6,6,1.5,1.5,0,0,0-1.5,1.5v12a1.5,1.5,0,0,0,1.5,1.5,6,6,0,0,1,6,6,1.5,1.5,0,0,0,1.5,1.5h48a1.5,1.5,0,0,0,1.5-1.5,6,6,0,0,1,6-6,1.5,1.5,0,0,0,1.5-1.5v-12A1.5,1.5,0,0,0,1498.5,1130.5Zm-1.5,12.12a9.056,9.056,0,0,0-7.38,7.38h-45.24a9.056,9.056,0,0,0-7.38-7.38v-9.24a9.056,9.056,0,0,0,7.38-7.38h45.24a9.056,9.056,0,0,0,7.38,7.38v9.24Zm19.5-37.62h-75a1.5,1.5,0,0,0-1.5,1.5v4.5h-4.5a1.5,1.5,0,0,0-1.5,1.5v4.5h-4.5a1.5,1.5,0,0,0-1.5,1.5v39a1.5,1.5,0,0,0,1.5,1.5h75a1.5,1.5,0,0,0,1.5-1.5V1153h4.5a1.5,1.5,0,0,0,1.5-1.5V1147h4.5a1.5,1.5,0,0,0,1.5-1.5v-39A1.5,1.5,0,0,0,1516.5,1105Zm-13.5,46.5v4.5h-72v-36h72v31.5Zm6-1.5h-3v-31.5a1.5,1.5,0,0,0-1.5-1.5H1437v-3h72v36Zm6-6h-3v-31.5a1.5,1.5,0,0,0-1.5-1.5H1443v-3h72v36Zm2.4,30.3-14.97-10.5a1.5,1.5,0,0,0-2.4,1.2v5H1473a1.5,1.5,0,0,0-1.5,1.5v8a1.5,1.5,0,0,0,1.5,1.5h27.03v6.5a1.509,1.509,0,0,0,.87,1.36,1.559,1.559,0,0,0,.63.14,1.475,1.475,0,0,0,.96-0.35l14.97-12a1.5,1.5,0,0,0,.54-1.19A1.488,1.488,0,0,0,1517.4,1174.3Zm-14.37,10v-4.8a1.5,1.5,0,0,0-1.5-1.5H1474.5v-5h27.03a1.5,1.5,0,0,0,1.5-1.5V1168l11.05,7.56ZM1467,1170h-6a1.5,1.5,0,0,0-1.5,1.5v8a1.5,1.5,0,0,0,1.5,1.5h6a1.5,1.5,0,0,0,1.5-1.5v-8A1.5,1.5,0,0,0,1467,1170Zm-1.5,8h-3v-5h3v5Zm-13.5-8h-6a1.5,1.5,0,0,0-1.5,1.5v8a1.5,1.5,0,0,0,1.5,1.5h6a1.5,1.5,0,0,0,1.5-1.5v-8A1.5,1.5,0,0,0,1452,1170Zm-1.5,8h-3v-5h3v5Zm-15-8h-6a1.5,1.5,0,0,0-1.5,1.5v8a1.5,1.5,0,0,0,1.5,1.5h6a1.5,1.5,0,0,0,1.5-1.5v-8A1.5,1.5,0,0,0,1435.5,1170Zm-1.5,8h-3v-5h3v5Zm30.37-49.27a6.1,6.1,0,0,0-6.03,6.14,1.235,1.235,0,1,0,2.47,0,3.56,3.56,0,1,1,7.12,0v1.54h-2.87a1.255,1.255,0,0,0,0,2.51h2.87v1.67h-2.87a1.26,1.26,0,0,0,0,2.52h2.87v2.93a1.235,1.235,0,1,0,2.47,0v-2.93h2.88a1.26,1.26,0,0,0,0-2.52h-2.88v-1.67h2.88a1.255,1.255,0,0,0,0-2.51h-2.88v-1.54a6.093,6.093,0,0,0-6.03-6.14" transform="translate(-1427.9 -1104.9)"/>
</svg>
