<svg xmlns="http://www.w3.org/2000/svg" width="451.2" height="481.2" viewBox="0 0 75.2 80.2">
  <metadata><?xpacket begin="﻿" id="W5M0MpCehiHzreSzNTczkc9d"?>
<x:xmpmeta xmlns:x="adobe:ns:meta/" x:xmptk="Adobe XMP Core 5.6-c138 79.159824, 2016/09/14-01:09:01        ">
   <rdf:RDF xmlns:rdf="http://www.w3.org/1999/02/22-rdf-syntax-ns#">
      <rdf:Description rdf:about=""/>
   </rdf:RDF>
</x:xmpmeta>
                                                                                                    
                                                                                                    
                                                                                                    
                                                                                                    
                                                                                                    
                                                                                                    
                                                                                                    
                                                                                                    
                                                                                                    
                                                                                                    
                                                                                                    
                                                                                                    
                                                                                                    
                                                                                                    
                                                                                                    
                                                                                                    
                                                                                                    
                                                                                                    
                                                                                                    
                                                                                                    
                           
<?xpacket end="w"?></metadata>
<defs>
    <style>
      .cls-1 {
        fill: #333c84;
        stroke: #fff;
        stroke-width: 0.2px;
        fill-rule: evenodd;
      }
    </style>
  </defs>
  <path id="Forma_1" data-name="Forma 1" class="cls-1" d="M1104.83,1101h-62.66a6.161,6.161,0,0,0-6.17,6.14V1169a6.154,6.154,0,0,0,4.99,6.02v4.41a1.575,1.575,0,0,0,1.58,1.57h10.9a1.575,1.575,0,0,0,1.58-1.57v-4.3h36.9v4.3a1.568,1.568,0,0,0,1.58,1.57h10.9a1.575,1.575,0,0,0,1.58-1.57v-4.41A6.154,6.154,0,0,0,1111,1169v-61.86A6.161,6.161,0,0,0,1104.83,1101Zm-52.93,76.86h-7.75v-2.73h7.75v2.73Zm50.95,0h-7.75v-2.73h7.75v2.73Zm5-20.75h-3.64v-38.09h3.64v38.09Zm0-41.22h-3.64v-6.57a1.575,1.575,0,0,0-1.58-1.57h-58.26a1.568,1.568,0,0,0-1.58,1.57v57.49a1.568,1.568,0,0,0,1.58,1.57h58.26a1.575,1.575,0,0,0,1.58-1.57v-6.56h3.64V1169a3.02,3.02,0,0,1-3.02,3h-62.66a3.02,3.02,0,0,1-3.02-3v-61.86a3.013,3.013,0,0,1,3.02-3h62.66a3.013,3.013,0,0,1,3.02,3v8.75Zm-6.79-5v54.35h-55.12v-54.35h55.12Zm-12.29,11.98a21.7,21.7,0,0,0-30.55,0,21.426,21.426,0,0,0,0,30.39,21.692,21.692,0,0,0,30.55,0A21.4,21.4,0,0,0,1088.77,1122.87Zm-2.23,28.17a18.53,18.53,0,0,1-26.09,0,18.288,18.288,0,0,1,0-25.95,18.53,18.53,0,0,1,26.09,0A18.264,18.264,0,0,1,1086.54,1151.04Zm-1.98-23.97a15.693,15.693,0,0,0-22.12,0,15.5,15.5,0,0,0,0,22,15.717,15.717,0,0,0,22.12,0h0A15.5,15.5,0,0,0,1084.56,1127.07Zm-11.06-1.42a12.4,12.4,0,0,1,7.64,2.6l-5.17,5.14a5.325,5.325,0,0,0-4.94,0l-5.17-5.14A12.4,12.4,0,0,1,1073.5,1125.65Zm1.52,13.93a2.161,2.161,0,0,1-3.05,0,2.137,2.137,0,0,1,0-3.03,2.166,2.166,0,0,1,1.53-.63,2.143,2.143,0,0,1,1.52.63A2.119,2.119,0,0,1,1075.02,1139.58Zm-14-1.51a12.276,12.276,0,0,1,2.61-7.6l5.17,5.14a5.284,5.284,0,0,0,0,4.92l-5.17,5.14A12.318,12.318,0,0,1,1061.02,1138.07Zm12.48,12.42a12.463,12.463,0,0,1-7.64-2.6l5.17-5.15a5.306,5.306,0,0,0,4.94,0l5.17,5.15A12.463,12.463,0,0,1,1073.5,1150.49Zm9.87-4.82-5.17-5.14a5.284,5.284,0,0,0,0-4.92l5.17-5.14A12.37,12.37,0,0,1,1083.37,1145.67Z" transform="translate(-1035.9 -1100.9)"/>
</svg>
