<svg xmlns="http://www.w3.org/2000/svg" width="20" height="16"><path d="M10 3.366a4.394 4.394 0 0 1 4.55 4.213 3.814 3.814 0 0 1-.33 1.541l2.65 2.46a9.934 9.934 0 0 0 3.12-4 10.759 10.759 0 0 0-10-6.319 11.379 11.379 0 0 0-3.62.59l1.97 1.82A4.662 4.662 0 0 1 10 3.366zm-9.09-2.3l2.07 1.921.42.388a10.041 10.041 0 0 0-3.4 4.2 10.76 10.76 0 0 0 10 6.318 11.447 11.447 0 0 0 3.98-.708l.38.354 2.67 2.46 1.15-1.07L2.06-.008zm5.03 4.659l1.41 1.306a2.023 2.023 0 0 0-.08.548A2.631 2.631 0 0 0 10 10.106a2.689 2.689 0 0 0 .59-.068L12 11.344a4.8 4.8 0 0 1-2 .447 4.393 4.393 0 0 1-4.55-4.212 3.94 3.94 0 0 1 .49-1.854zm3.91-.657l2.87 2.654.02-.135a2.631 2.631 0 0 0-2.73-2.527z" fill="#424242" fill-rule="evenodd"/></svg>