<svg xmlns="http://www.w3.org/2000/svg" width="20" height="23"><path data-name="plus copy" d="M12.783 8.009l-5.922 8.512a2.843 2.843 0 0 1-4.514.476 4.433 4.433 0 0 1-.395-5.445L8.389 2.3A1.778 1.778 0 0 1 11.21 2a2.773 2.773 0 0 1 .247 3.4L6.05 13.172a.712.712 0 0 1-1.128.119 1.111 1.111 0 0 1-.1-1.361l4.892-7.031-.921-.932L3.9 11a2.773 2.773 0 0 0 .247 3.4 1.779 1.779 0 0 0 2.822-.3l5.406-7.772A4.433 4.433 0 0 0 11.98.883a2.843 2.843 0 0 0-4.514.477L1.03 10.612a6.092 6.092 0 0 0 .543 7.486 3.908 3.908 0 0 0 6.207-.655l5.921-8.512zm.882 2.088a6.448 6.448 0 1 1-6.326 6.447 6.387 6.387 0 0 1 6.326-6.444zm-.7 2.866h1.406v7.163h-1.406v-7.163zm-2.811 2.865h7.029v1.433h-7.029v-1.433z" fill="#8ac643" fill-rule="evenodd"/></svg>