<svg xmlns="http://www.w3.org/2000/svg" width="16" height="16"><path d="M8 0a8 8 0 1 1-8 8 8 8 0 0 1 8-8zm.77 9.96v-.35a.971.971 0 0 1 .149-.57 3.116 3.116 0 0 1 .712-.63 4.363 4.363 0 0 0 1.113-1.06 2.033 2.033 0 0 0 .293-1.11 1.9 1.9 0 0 0-.711-1.55 2.932 2.932 0 0 0-1.919-.58 5.562 5.562 0 0 0-2.772.73l.639 1.29a4.432 4.432 0 0 1 2-.58 1.363 1.363 0 0 1 .785.2.668.668 0 0 1 .281.58 1.055 1.055 0 0 1-.2.62 3.718 3.718 0 0 1-.812.71 3.086 3.086 0 0 0-.879.89 1.886 1.886 0 0 0-.24.97v.44h1.553zM7.299 12.7a1.069 1.069 0 0 0 .762.26 1.014 1.014 0 0 0 .75-.27.985.985 0 0 0 .269-.73 1 1 0 0 0-.266-.74 1.045 1.045 0 0 0-.753-.25 1.061 1.061 0 0 0-.768.25.975.975 0 0 0-.263.74.989.989 0 0 0 .27.74z" fill-rule="evenodd" opacity=".2"/></svg>