<svg xmlns="http://www.w3.org/2000/svg" width="543" height="417" viewBox="0 0 90.5 69.5">
  <metadata><?xpacket begin="﻿" id="W5M0MpCehiHzreSzNTczkc9d"?>
<x:xmpmeta xmlns:x="adobe:ns:meta/" x:xmptk="Adobe XMP Core 5.6-c138 79.159824, 2016/09/14-01:09:01        ">
   <rdf:RDF xmlns:rdf="http://www.w3.org/1999/02/22-rdf-syntax-ns#">
      <rdf:Description rdf:about=""/>
   </rdf:RDF>
</x:xmpmeta>
                                                                                                    
                                                                                                    
                                                                                                    
                                                                                                    
                                                                                                    
                                                                                                    
                                                                                                    
                                                                                                    
                                                                                                    
                                                                                                    
                                                                                                    
                                                                                                    
                                                                                                    
                                                                                                    
                                                                                                    
                                                                                                    
                                                                                                    
                                                                                                    
                                                                                                    
                                                                                                    
                           
<?xpacket end="w"?></metadata>
<defs>
    <style>
      .cls-1 {
        fill: #333c84;
        stroke: #fff;
        stroke-width: 0.5px;
        fill-rule: evenodd;
      }
    </style>
  </defs>
  <path class="cls-1" d="M710.486,1362.39h-9.158v-12.9a7.51,7.51,0,0,0-7.513-7.49h-58.3a7.511,7.511,0,0,0-7.514,7.49v33.63a7.511,7.511,0,0,0,7.514,7.49h9.158v12.9a7.511,7.511,0,0,0,7.514,7.49h58.3a7.511,7.511,0,0,0,7.514-7.49v-33.63A7.511,7.511,0,0,0,710.486,1362.39Zm-78.193-12.9a3.219,3.219,0,0,1,3.221-3.21h58.3a3.219,3.219,0,0,1,3.22,3.21v2.99H632.293v-2.99Zm12.379,20.39v16.45h-9.158a3.219,3.219,0,0,1-3.221-3.21v-16.44h13.1A7.439,7.439,0,0,0,644.672,1369.88Zm-12.379-7.48v-5.63h64.742v5.62H652.186c-0.145,0-.289,0-0.432.01H632.293Zm78.193,44.32h-58.3a3.219,3.219,0,0,1-3.221-3.21v-33.63a3.225,3.225,0,0,1,2.958-3.2h47.258a1.817,1.817,0,0,0,.234-0.01h11.071a3.218,3.218,0,0,1,3.22,3.21v33.63h0A3.218,3.218,0,0,1,710.486,1406.72ZM687.8,1376.37a10.291,10.291,0,0,0-6.459,2.27,10.325,10.325,0,1,0,0,16.11A10.331,10.331,0,1,0,687.8,1376.37Zm-9.186,15.07a6.045,6.045,0,1,1,0-9.49A10.261,10.261,0,0,0,678.617,1391.44Zm9.186,1.29a6.04,6.04,0,1,1,6.054-6.04A6.054,6.054,0,0,1,687.8,1392.73Z" transform="translate(-627.75 -1341.75)"/>
</svg>
