<svg xmlns="http://www.w3.org/2000/svg" width="13.719" height="19.344"><path d="M12.783 8.009l-5.922 8.512a2.843 2.843 0 0 1-4.514.476 4.433 4.433 0 0 1-.395-5.445L8.389 2.3A1.778 1.778 0 0 1 11.21 2a2.773 2.773 0 0 1 .247 3.4L6.05 13.172a.712.712 0 0 1-1.128.119 1.111 1.111 0 0 1-.1-1.361l4.892-7.031-.921-.932L3.9 11a2.773 2.773 0 0 0 .247 3.4 1.779 1.779 0 0 0 2.822-.3l5.406-7.772A4.433 4.433 0 0 0 11.98.883a2.843 2.843 0 0 0-4.514.477L1.03 10.612a6.092 6.092 0 0 0 .543 7.486 3.908 3.908 0 0 0 6.207-.655l5.921-8.512z" fill="#424242" fill-rule="evenodd"/></svg>