<svg xmlns="http://www.w3.org/2000/svg" width="20" height="17"><path d="M1.807 0a.96.96 0 0 0-.813.944v7.855a5.82 5.82 0 0 1 3.5-1.239 5.4 5.4 0 0 1 5.5 5.194v.472h4.5a2.293 2.293 0 0 0-.5 1.417 2.506 2.506 0 0 0 5 0 2.284 2.284 0 0 0-.657-1.594 1.95 1.95 0 0 0 1.157-1.416l.5-3.04a.981.981 0 0 0-1-1.033l-8.473-.885L8.957.713A.991.991 0 0 0 8 0H1.809M3 1.89h4.222l1.219 4.545L3 5.874V1.89m12.007 0v4.072l2 .266V1.89h-2M4.5 8.5A4.257 4.257 0 1 0 9 12.75 4.363 4.363 0 0 0 4.5 8.5m0 1.417a2.838 2.838 0 1 1-3 2.833 2.869 2.869 0 0 1 3-2.833m12.007 3.777a.946.946 0 1 1-1 .945.92.92 0 0 1 1-.945" fill-rule="evenodd"/></svg>