<svg xmlns="http://www.w3.org/2000/svg" width="19" height="16" viewBox="0 0 19 16">
  <metadata><?xpacket begin="﻿" id="W5M0MpCehiHzreSzNTczkc9d"?>
<x:xmpmeta xmlns:x="adobe:ns:meta/" x:xmptk="Adobe XMP Core 5.6-c138 79.159824, 2016/09/14-01:09:01        ">
   <rdf:RDF xmlns:rdf="http://www.w3.org/1999/02/22-rdf-syntax-ns#">
      <rdf:Description rdf:about=""/>
   </rdf:RDF>
</x:xmpmeta>
                                                                                                    
                                                                                                    
                                                                                                    
                                                                                                    
                                                                                                    
                                                                                                    
                                                                                                    
                                                                                                    
                                                                                                    
                                                                                                    
                                                                                                    
                                                                                                    
                                                                                                    
                                                                                                    
                                                                                                    
                                                                                                    
                                                                                                    
                                                                                                    
                                                                                                    
                                                                                                    
                           
<?xpacket end="w"?></metadata>
<defs>
    <style>
      .cls-1 {
        fill: #fff;
        fill-rule: evenodd;
      }
    </style>
  </defs>
  <path id="twitter" class="cls-1" d="M1491,40.895a7.606,7.606,0,0,1-2.24.636,4,4,0,0,0,1.71-2.234,7.557,7.557,0,0,1-2.47.98A3.824,3.824,0,0,0,1485.15,39a4.067,4.067,0,0,0-3.79,4.96,10.966,10.966,0,0,1-8.04-4.22,4.185,4.185,0,0,0-.52,2.03,4.088,4.088,0,0,0,1.73,3.362,3.748,3.748,0,0,1-1.76-.505v0.051a4.007,4.007,0,0,0,3.12,3.961,3.787,3.787,0,0,1-1.02.141,3.73,3.73,0,0,1-.74-0.073,3.93,3.93,0,0,0,3.64,2.8,7.63,7.63,0,0,1-4.84,1.729,7.926,7.926,0,0,1-.93-0.056A10.794,10.794,0,0,0,1477.98,55c7.17,0,11.09-6.155,11.09-11.492,0-.175-0.01-0.349-0.02-0.522A7.928,7.928,0,0,0,1491,40.9h0Z" transform="translate(-1472 -39)"/>
</svg>
