<svg xmlns="http://www.w3.org/2000/svg" width="20" height="16" viewBox="0 0 20 16">
  <metadata><?xpacket begin="﻿" id="W5M0MpCehiHzreSzNTczkc9d"?>
<x:xmpmeta xmlns:x="adobe:ns:meta/" x:xmptk="Adobe XMP Core 5.6-c138 79.159824, 2016/09/14-01:09:01        ">
   <rdf:RDF xmlns:rdf="http://www.w3.org/1999/02/22-rdf-syntax-ns#">
      <rdf:Description rdf:about=""/>
   </rdf:RDF>
</x:xmpmeta>
                                                                                                    
                                                                                                    
                                                                                                    
                                                                                                    
                                                                                                    
                                                                                                    
                                                                                                    
                                                                                                    
                                                                                                    
                                                                                                    
                                                                                                    
                                                                                                    
                                                                                                    
                                                                                                    
                                                                                                    
                                                                                                    
                                                                                                    
                                                                                                    
                                                                                                    
                                                                                                    
                           
<?xpacket end="w"?></metadata>
<defs>
    <style>
      .cls-1 {
        fill: #fff;
        fill-rule: evenodd;
      }
    </style>
  </defs>
  <path id="YouTube_Icon" data-name="YouTube Icon" class="cls-1" d="M1517.56,39h-0.01s-4.43,0-7.39.23a2.9,2.9,0,0,0-2.11.964,5.2,5.2,0,0,0-.84,2.258s-0.21,1.841-.21,3.682v1.726c0,1.841.21,3.682,0.21,3.682a5.2,5.2,0,0,0,.84,2.258,3.428,3.428,0,0,0,2.33.972c1.69,0.175,7.18.229,7.18,0.229h0s3.32-.007,6.27-0.237a2.9,2.9,0,0,0,2.12-.964,5.2,5.2,0,0,0,.84-2.258s0.21-1.841.21-3.682V46.133c0-1.841-.21-3.682-0.21-3.682a5.2,5.2,0,0,0-.84-2.258,2.9,2.9,0,0,0-2.12-.964c-2.95-.23-6.27-0.23-6.27-0.23m-2.8,3.424,6.2,4.462-6.2,4.7V42.423Z" transform="translate(-1507 -39)"/>
</svg>
