<svg xmlns="http://www.w3.org/2000/svg" width="100" height="23" viewBox="0 0 100 23">
  <metadata><?xpacket begin="﻿" id="W5M0MpCehiHzreSzNTczkc9d"?>
<x:xmpmeta xmlns:x="adobe:ns:meta/" x:xmptk="Adobe XMP Core 5.6-c138 79.159824, 2016/09/14-01:09:01        ">
   <rdf:RDF xmlns:rdf="http://www.w3.org/1999/02/22-rdf-syntax-ns#">
      <rdf:Description rdf:about=""/>
   </rdf:RDF>
</x:xmpmeta>
                                                                                                    
                                                                                                    
                                                                                                    
                                                                                                    
                                                                                                    
                                                                                                    
                                                                                                    
                                                                                                    
                                                                                                    
                                                                                                    
                                                                                                    
                                                                                                    
                                                                                                    
                                                                                                    
                                                                                                    
                                                                                                    
                                                                                                    
                                                                                                    
                                                                                                    
                                                                                                    
                           
<?xpacket end="w"?></metadata>
<defs>
    <style>
      .cls-1 {
        fill: #fff;
        fill-rule: evenodd;
      }
    </style>
  </defs>
  <path id="zoom_logo" data-name="zoom logo" class="cls-1" d="M1436.95,136.36v-1.017h-4.01l3.82-5.79v-1.017h-5.49v1h3.6l-3.87,5.745v1.078h5.95Zm8.02-4.035c0-2.435-1.28-3.989-3.61-3.989-2.88,0-3.75,2.324-3.75,4.219,0,2.435,1.28,3.992,3.6,3.992,2.89,0,3.76-2.328,3.76-4.222h0Zm-1.85.107c0,1.957-.48,3.05-1.8,3.05-1.38,0-1.86-1.232-1.86-3.05,0-1.955.48-3.034,1.8-3.034,1.38,0,1.86,1.218,1.86,3.034h0Zm10.19-.107c0-2.435-1.28-3.989-3.61-3.989-2.88,0-3.75,2.324-3.75,4.219,0,2.435,1.28,3.992,3.6,3.992,2.89,0,3.76-2.328,3.76-4.222h0Zm-1.85.107c0,1.957-.48,3.05-1.8,3.05-1.38,0-1.86-1.232-1.86-3.05,0-1.955.48-3.034,1.8-3.034,1.38,0,1.86,1.218,1.86,3.034h0Zm14.13,3.928v-4.79a7.041,7.041,0,0,0-.12-1.479,2.282,2.282,0,0,0-2.46-1.755,3.469,3.469,0,0,0-2.55,1.017,2.161,2.161,0,0,0-2.1-1,2.738,2.738,0,0,0-2.21.956v-0.786h-1.73v7.839h1.78v-6.531a2.6,2.6,0,0,1,1.26-.292,1.4,1.4,0,0,1,1.59,1.248,7.448,7.448,0,0,1,.06,1.2v4.374h1.78v-4.5a9.232,9.232,0,0,0-.07-1.51,3.933,3.933,0,0,0-.12-0.463,3,3,0,0,1,1.41-.337,1.413,1.413,0,0,1,1.65,1.216,7.667,7.667,0,0,1,.06,1.217v4.374h1.77Zm25.29-7.763a2.143,2.143,0,0,0-2.86.908v-0.984h-1.71v7.839h1.77V130a2.359,2.359,0,0,1,1.18-.293,1.892,1.892,0,0,1,1.2.385l0.42-1.494h0Zm6.55,7.763v-4.62a8.457,8.457,0,0,0-.14-1.926c-0.15-.477-0.6-1.463-2.63-1.463a6.662,6.662,0,0,0-2.49.4l0.38,1.079a3.408,3.408,0,0,1,1.66-.415,1.233,1.233,0,0,1,1.38.785,4.3,4.3,0,0,1,.11,1.156v0.553s-0.56-.045-1.08-0.045a3.825,3.825,0,0,0-2.33.508,2.315,2.315,0,0,0,1.5,4.1,2.449,2.449,0,0,0,1.95-.833v0.723h1.69Zm-1.73-1.171a2.527,2.527,0,0,1-1.07.2,1.233,1.233,0,0,1-1.42-1.278,1.3,1.3,0,0,1,.49-1.093,2.182,2.182,0,0,1,1.22-.294c0.63,0,.78.017,0.78,0.017v2.448h0Zm10.42-2.926c0-2.449-1.21-3.866-3.15-3.866a2.554,2.554,0,0,0-2.15.925v-0.8h-1.72v10.958h1.77v-3.305a3.062,3.062,0,0,0,1.62.328c2.06,0,3.63-1.652,3.63-4.239h0Zm-1.84.138c0,1.911-.69,3.1-2.45,3.1a2.885,2.885,0,0,1-.96-0.14v-5.5a2.489,2.489,0,0,1,1.25-.292c1.41,0,2.16,1.123,2.16,2.832h0Zm9.67,3.959v-4.713a7.577,7.577,0,0,0-.12-1.54,2.221,2.221,0,0,0-2.38-1.756,2.74,2.74,0,0,0-2.26.956v-4.286h-1.77V136.36h1.77v-6.531a2.96,2.96,0,0,1,1.29-.292,1.454,1.454,0,0,1,1.64,1.232,8.093,8.093,0,0,1,.06,1.278v4.313h1.77Zm3.66-9.875a0.951,0.951,0,0,0-1.05-.969,0.978,0.978,0,0,0-1.08,1.032,0.956,0.956,0,0,0,1.05.969,0.978,0.978,0,0,0,1.08-1.032h0Zm-0.16,9.875v-7.839h-1.77v7.839h1.77Zm7.28-7.61a4.914,4.914,0,0,0-2-.383,3.72,3.72,0,0,0-3.42,1.724,4.654,4.654,0,0,0-.62,2.5c0,2.327,1.29,3.9,3.71,3.9a4.543,4.543,0,0,0,2.31-.465l-0.36-1.031a2.872,2.872,0,0,1-1.47.368c-1.74,0-2.37-1.4-2.37-2.926,0-2.079.8-2.971,2.39-2.971a2.648,2.648,0,0,1,1.47.385l0.36-1.1h0Zm6.27,5.316a2.209,2.209,0,0,0-1.39-2.064l-1.14-.618c-0.64-.353-0.96-0.522-0.96-1.076a1.06,1.06,0,0,1,1.29-.894,3.355,3.355,0,0,1,1.66.432l0.36-1.079a4.974,4.974,0,0,0-2.2-.416c-1.59,0-2.67.694-2.67,2.17a2.323,2.323,0,0,0,1.49,2.158l1.17,0.678a1.063,1.063,0,0,1,.76,1c0,0.647-.49,1.032-1.41,1.032a3.73,3.73,0,0,1-1.92-.431l-0.36,1.063a5.282,5.282,0,0,0,2.45.449C1529.46,136.47,1531,135.975,1531,134.066Zm-55.1-11.076a8.58,8.58,0,0,1,8.47,8.69,8.763,8.763,0,0,1-2.8,6.456,4.213,4.213,0,0,0,.1-0.929c0-2.762-2.49-2.762-3.62-2.762s-1.41.046-2.25,0.046c-0.71,0-1.4-.068-1.4-0.98a1.486,1.486,0,0,1,.46-1,6.46,6.46,0,0,0,.98.068c2.98,0,4.33-1.648,4.48-3.787,0.32-4.891-9.15-4.987-9.04-.069a3.5,3.5,0,0,0,2.61,3.514,2.829,2.829,0,0,0-1.72,2.42,1.665,1.665,0,0,0,.92,1.551s-2.19.434-2.41,2.316a8.747,8.747,0,0,1-3.25-6.839A8.58,8.58,0,0,1,1475.9,122.99Zm3.28,5.837a2.033,2.033,0,0,1-1.03,2.034,2.818,2.818,0,0,1-1.13.227,2.325,2.325,0,0,1-1.15-4.237,2.747,2.747,0,0,1,1.13-.246A2.01,2.01,0,0,1,1479.18,128.827Zm-47.24,15.948h-0.29l0.03-.212v-0.684l0.02-.9v-1.139l-0.02-.739v-0.423l-0.02-.248-0.01-.17,0.28,0.019,0.27-.019-0.04.176v1.4l-0.01.527,0.01,0.618v1.6l0.04,0.188h-0.26Zm6.5-2.834a1.514,1.514,0,0,1,.6-0.121,1.279,1.279,0,0,1,1,.415,1.543,1.543,0,0,1,.38,1.074,1.575,1.575,0,0,1-.39,1.1,1.343,1.343,0,0,1-1.05.434,1.39,1.39,0,0,1-.75-0.206,1.208,1.208,0,0,1-.52-0.594,1.631,1.631,0,0,1-.13-0.654,1.405,1.405,0,0,1,.86-1.447h0Zm-0.32,1.435a2.764,2.764,0,0,0,.01.3c0.02,0.088.04,0.185,0.07,0.285a0.766,0.766,0,0,0,.77.659,0.874,0.874,0,0,0,.85-0.811,1.753,1.753,0,0,0,.05-0.248,2.434,2.434,0,0,0,.02-0.272,1.7,1.7,0,0,0-.19-0.83,0.712,0.712,0,0,0-.68-0.412,0.811,0.811,0,0,0-.81.7,2.132,2.132,0,0,0-.09.63h0Zm8.21-1.435a1.514,1.514,0,0,1,.6-0.121,1.3,1.3,0,0,1,1.01.415,1.537,1.537,0,0,1,.37,1.074,1.575,1.575,0,0,1-.39,1.1,1.336,1.336,0,0,1-1.04.434,1.4,1.4,0,0,1-.76-0.206,1.208,1.208,0,0,1-.52-0.594,1.635,1.635,0,0,1-.12-0.654,1.4,1.4,0,0,1,.85-1.447h0Zm-0.32,1.435a2.621,2.621,0,0,0,.02.3,1.654,1.654,0,0,0,.06.285,0.769,0.769,0,0,0,.78.659,0.881,0.881,0,0,0,.85-0.811,1.786,1.786,0,0,0,.04-0.248,1.233,1.233,0,0,0,.02-0.272,1.818,1.818,0,0,0-.18-0.83,0.717,0.717,0,0,0-.69-0.412,0.826,0.826,0,0,0-.81.7,2.132,2.132,0,0,0-.09.63h0Zm7.8-3.093,0.28-.019-0.02.144v0.208l-0.03.659v1.852l0.14,0a0.327,0.327,0,0,0,.15-0.109l0.16-.152a2.633,2.633,0,0,0,.33-0.35l0.28-.315,0.14-.163,0.1-.152,0.29,0.018,0.26-.018-0.16.156-0.19.171-0.33.3-0.37.344-0.27.249,0.29,0.33,0.44,0.518,0.45,0.521,0.17,0.169,0.17,0.139-0.45-.012-0.32.012-0.1-.144-0.14-.2-0.36-.464-0.4-.468-0.19-.216h-0.09v1.088a0.57,0.57,0,0,0,.03.219l0.02,0.182-0.28-.012-0.27.012,0.03-.17v-0.231l0.02-.55v-2.556l-0.02-.652v-0.2l-0.03-.157,0.27,0.019h0Zm7.46,4.322v-0.611l0.02-.738-0.02-.589v-0.623l-0.03-.163,0.28,0.018,0.27-.018-0.03.17v0.629l-0.02.576,0.02,0.738v0.617l0.03,0.164-0.26-.012-0.29.012,0.03-.17h0Zm0.05-3.972a0.281,0.281,0,0,1,.21-0.1,0.273,0.273,0,0,1,.31.311,0.268,0.268,0,0,1-.31.3,0.3,0.3,0,0,1-.3-0.3,0.284,0.284,0,0,1,.09-0.214h0Zm6.08,4.014,0.01-.176,0.02-.29v-1.943L1467.4,142l-0.02-.115,0.27,0.018,0.26-.018-0.03.109-0.02.212v0.163l0.1-.138a1.033,1.033,0,0,1,.84-0.407,0.955,0.955,0,0,1,.65.222,0.89,0.89,0,0,1,.31.625v1.781l0.02,0.211,0.01,0.116-0.26-.012-0.28.012,0.02-.128,0.02-.241v-1.538a0.334,0.334,0,0,1-.01-0.086,0.682,0.682,0,0,0-.22-0.466,0.716,0.716,0,0,0-.47-0.169,0.629,0.629,0,0,0-.67.643l-0.04.405v1.265l0.02,0.187,0.03,0.128-0.29-.012-0.26.012,0.02-.128h0Zm8.14-.219a0.373,0.373,0,0,1-.22-0.361,0.6,0.6,0,0,1,.46-0.5l-0.2-.072a0.734,0.734,0,0,1-.43-0.736,0.817,0.817,0,0,1,.42-0.755,1.155,1.155,0,0,1,.18-0.089,0.656,0.656,0,0,1,.19-0.053c0.06-.01.14-0.019,0.21-0.028s0.15-.011.24-0.011h0.24l0.37,0.024h0.33l0.33-.048v0.321l-0.29-.042h-0.26a0.792,0.792,0,0,1,.31.64,0.833,0.833,0,0,1-.06.312,1.644,1.644,0,0,1-.09.17,0.788,0.788,0,0,1-.14.152,1.114,1.114,0,0,1-.78.307h-0.26q-0.39,0-.39.247c0,0.162.13,0.242,0.41,0.242h0.66a1.184,1.184,0,0,1,.64.156,0.628,0.628,0,0,1,.31.566,1.027,1.027,0,0,1-.48.861,1.635,1.635,0,0,1-.95.27h-0.23c-0.06-.013-0.1-0.02-0.13-0.025a1.158,1.158,0,0,1-.57-0.223,0.672,0.672,0,0,1-.28-0.539,0.8,0.8,0,0,1,.68-0.7,0.673,0.673,0,0,1-.22-0.086h0Zm-0.07.759a0.53,0.53,0,0,0,.28.472,1.1,1.1,0,0,0,.56.122,1.229,1.229,0,0,0,.63-0.146,0.6,0.6,0,0,0,.34-0.546c0-.367-0.3-0.55-0.89-0.55a2.072,2.072,0,0,0-.39.035,0.583,0.583,0,0,0-.53.613h0Zm0.23-2.447a0.589,0.589,0,0,0,1.03.492,0.763,0.763,0,0,0,.15-0.5,0.772,0.772,0,0,0-.18-0.519,0.492,0.492,0,0,0-.41-0.171,0.551,0.551,0,0,0-.45.2,0.809,0.809,0,0,0-.14.491h0Zm8.51-.713-0.02-.177,0.08,0.025a0.786,0.786,0,0,0,.22.024h0.09l0.02-.194c0.02-.153.04-0.261,0.05-0.324a0.892,0.892,0,0,1,.06-0.2,1.525,1.525,0,0,1,.27-0.5,1.306,1.306,0,0,1,.44-0.374,1.192,1.192,0,0,1,.12-0.053,0.566,0.566,0,0,1,.13-0.015h0.09l0.06,0.02-0.02.253,0.02,0.273-0.15-.051a0.61,0.61,0,0,0-.19-0.028,0.439,0.439,0,0,0-.49.506l0.02,0.345,0.04,0.348h0.22l0.27-.034,0.13-.015-0.02.183,0.01,0.169-0.17-.025-0.26-.024h-0.19v1.365l0.01,0.843v0.246l0.03,0.168-0.25-.012-0.29.012,0.02-.17v-0.253l0.02-.843v-1.356h-0.09a0.664,0.664,0,0,0-.17.024l-0.13.025,0.02-.175h0Zm7.17-.086a1.514,1.514,0,0,1,.6-0.121,1.3,1.3,0,0,1,1.01.415,1.537,1.537,0,0,1,.37,1.074,1.575,1.575,0,0,1-.39,1.1,1.336,1.336,0,0,1-1.04.434,1.4,1.4,0,0,1-.76-0.206,1.208,1.208,0,0,1-.52-0.594,1.635,1.635,0,0,1-.12-0.654,1.4,1.4,0,0,1,.85-1.447h0Zm-0.32,1.435a2.621,2.621,0,0,0,.02.3,1.654,1.654,0,0,0,.06.285,0.766,0.766,0,0,0,.77.659,0.883,0.883,0,0,0,.86-0.811,1.786,1.786,0,0,0,.04-0.248,1.233,1.233,0,0,0,.02-0.272,1.818,1.818,0,0,0-.18-0.83,0.717,0.717,0,0,0-.69-0.412,0.826,0.826,0,0,0-.81.7,2.132,2.132,0,0,0-.09.63h0Zm7.65,1.241v-2.6l-0.05-.133,0.3,0.018,0.28-.018-0.02.146-0.02.217V142.4l0.16-.225a0.757,0.757,0,0,1,.59-0.357l0.14,0.017,0.08,0.018-0.08.25-0.02.266-0.14-.048a0.467,0.467,0,0,0-.17-0.031,0.607,0.607,0,0,0-.58.679c0,0.06-.01.114-0.01,0.16v1.257l0.03,0.217,0.01,0.17-0.24-.012-0.31.012,0.05-.158h0Zm6.47-2.718,0.3-.018,0.04,0.181,0.05,0.2,0.1,0.333,0.18,0.52,0.14,0.438,0.2,0.532,0.19-.509,0.16-.46,0.17-.557,0.09-.271,0.07-.233,0.04-.174,0.2,0.018,0.2-.018,0.05,0.181,0.07,0.236,0.1,0.3,0.17,0.515,0.16,0.484,0.18,0.5,0.19-.478,0.18-.508,0.17-.515,0.11-.321,0.06-.212,0.03-.181,0.24,0.018,0.22-.018-0.08.181-0.12.249-0.14.309-0.21.546-0.37.937-0.14.357-0.05.176-0.04.139h-0.34l-0.03-.139-0.05-.194-0.1-.34-0.18-.514-0.23-.641-0.15-.412-0.15.428-0.22.625-0.16.486-0.12.368-0.05.2-0.03.133h-0.34l-0.04-.139-0.06-.208-0.13-.38-0.33-.878-0.2-.544-0.14-.358-0.09-.213-0.08-.174,0.31,0.018h0Zm9.25,0.272,0.08-.066a1.549,1.549,0,0,1,.51-0.243c0.06-.012.12-0.022,0.17-0.029a1.3,1.3,0,0,1,.2-0.013,1.314,1.314,0,0,1,.38.055,0.86,0.86,0,0,1,.49.381,1.151,1.151,0,0,1,.12.617v1.563a0.171,0.171,0,0,0,.19.181l0.1-.006,0.03,0.14-0.05.018-0.16.048-0.18.025a0.316,0.316,0,0,1-.34-0.255l-0.04-.12-0.09.067a0.823,0.823,0,0,1-.19.125,1.068,1.068,0,0,1-.24.11,1.156,1.156,0,0,1-.38.073,1.04,1.04,0,0,1-.3-0.042,0.676,0.676,0,0,1-.55-0.715,0.873,0.873,0,0,1,.08-0.369,0.684,0.684,0,0,1,.29-0.33,1.408,1.408,0,0,1,.46-0.144l0.56-.108,0.22-.054a0.182,0.182,0,0,0,.09-0.055,0.252,0.252,0,0,0,.05-0.116v-0.133a0.96,0.96,0,0,0-.17-0.532,0.652,0.652,0,0,0-.51-0.2,0.905,0.905,0,0,0-.26.034,0.784,0.784,0,0,0-.22.093,0.73,0.73,0,0,0-.28.334h-0.06v-0.334h0Zm1.5,1.127-0.36.06a2.354,2.354,0,0,0-.33.078,0.588,0.588,0,0,0-.53.564,0.471,0.471,0,0,0,.55.508,0.8,0.8,0,0,0,.6-0.248l0.07-.079V143.3h0Zm6.01,1.319V144.1l0.01-.738v-0.775l-0.01-.321v-0.248l-0.04-.133,0.29,0.018,0.29-.018-0.02.146-0.03.217V142.4l0.16-.225a0.788,0.788,0,0,1,.59-0.357l0.15,0.017,0.07,0.018-0.07.25-0.03.266-0.13-.048a0.467,0.467,0,0,0-.17-0.031,0.609,0.609,0,0,0-.59.679,0.788,0.788,0,0,1-.01.16v1.257l0.03,0.217,0.02,0.17-0.25-.012-0.3.012,0.04-.158h0Zm8.45,0.03,0.02-.32v-0.2l-0.07.146a1.05,1.05,0,0,1-.96.569,1.067,1.067,0,0,1-.92-0.471,1.81,1.81,0,0,1-.28-1.043,1.679,1.679,0,0,1,.32-1.048,1.183,1.183,0,0,1,.96-0.46,1.167,1.167,0,0,1,.51.124,0.752,0.752,0,0,1,.37.354l0.03,0.067-0.01-.593-0.01-.829v-0.529l-0.02-.15,0.26,0.019,0.28-.019-0.01.15-0.02.231v2.3l-0.01,1.029,0.01,0.376v0.284l0.03,0.139-0.25-.012-0.25.012,0.02-.128h0Zm-1.68-1.361v0.169a1.523,1.523,0,0,0,.03.255,1.177,1.177,0,0,0,.09.375,0.683,0.683,0,0,0,.67.5,0.755,0.755,0,0,0,.73-0.533,2.008,2.008,0,0,0,.12-0.756,1.542,1.542,0,0,0-.22-0.879,0.646,0.646,0,0,0-.57-0.332C1528.99,142.081,1528.71,142.482,1528.71,143.286Z" transform="translate(-1431 -123)"/>
</svg>
