<?xml version="1.0" encoding="utf-8"?>
<!-- Generator: Adobe Illustrator 21.1.0, SVG Export Plug-In . SVG Version: 6.00 Build 0)  -->
<svg version="1.1" id="abc_logo" xmlns="http://www.w3.org/2000/svg" xmlns:xlink="http://www.w3.org/1999/xlink" x="0px" y="0px"
	 viewBox="0 0 60.1 25.9" style="enable-background:new 0 0 60.1 25.9;" xml:space="preserve">
<style type="text/css">
	.st0{opacity:0.8;fill:#FFFFFF;enable-background:new    ;}
	.st1{opacity:0.6;fill:#4A4A4A;enable-background:new    ;}
	.st2{fill:#FFFFFF;}
	.st3{opacity:0.85;fill:#4A4A4A;enable-background:new    ;}
	.st4{opacity:0.7;fill:#4A4A4A;enable-background:new    ;}
</style>
<path id="Фигура_1" class="st0" d="M1.7,0h14.7c1.1,0.2,1.8,1.2,1.7,2.3v12.6c0.1,1.1-0.6,2.1-1.7,2.3H1.7
	c-1.1-0.2-1.8-1.2-1.7-2.3V2.2C-0.1,1.2,0.6,0.2,1.7,0 M16.8,0.1c0.8,0.4,1.3,1.3,1.3,2.2v12.6l0,0V2.2C18.2,1.3,17.7,0.5,16.8,0.1
	 M22.7,0h14.7c1.1,0.2,1.8,1.2,1.7,2.3v12.6c0.1,1.1-0.6,2.1-1.7,2.3H22.7c-1.1-0.2-1.8-1.2-1.7-2.3V2.2C20.9,1.2,21.6,0.2,22.7,0
	 M37.8,0.1c0.8,0.4,1.3,1.3,1.3,2.2v12.6l0,0V2.2C39.2,1.3,38.7,0.5,37.8,0.1 M43.7,0h14.7c1.1,0.2,1.8,1.2,1.7,2.3v12.6
	c0.1,1.1-0.6,2.1-1.7,2.3H43.7c-1.1-0.2-1.8-1.2-1.7-2.3V2.2C41.9,1.2,42.6,0.2,43.7,0 M58.8,0.1c0.8,0.4,1.3,1.3,1.3,2.2v12.6l0,0
	V2.2C60.2,1.3,59.7,0.5,58.8,0.1"/>
<path id="Прямоугольник_1" class="st1" d="M16.3,0L16.3,0C12.8,10.6,0,14.8,0,14.8c-0.1,1.1,0.6,2.1,1.7,2.3h14.6
	c1.1-0.2,1.8-1.2,1.7-2.3V2.2c0.1-0.9-0.4-1.8-1.3-2.2C16.6,0,16.5,0,16.3,0L16.3,0"/>
<path id="Фигура_633" class="st2" d="M0.2,22.3c0-0.3,0.1-0.6,0.2-0.8c0.1-0.2,0.3-0.4,0.5-0.5c0.2-0.1,0.5-0.2,0.7-0.3
	c0.3,0,0.5-0.1,0.8-0.1c0.2,0,0.5,0,0.7,0c0.2,0,0.4,0.1,0.7,0.2C4,21,4.1,21.2,4.3,21.4c0.1,0.2,0.2,0.5,0.2,0.7v2.5
	c0,0.2,0,0.4,0,0.6c0,0.1,0.1,0.3,0.1,0.4H3.3c0-0.1,0-0.2-0.1-0.2c0-0.1,0-0.2,0-0.2c-0.2,0.2-0.5,0.4-0.7,0.5
	c-0.3,0.1-0.6,0.1-0.9,0.1c-0.2,0-0.4,0-0.6-0.1c-0.2-0.1-0.4-0.1-0.5-0.3c-0.1-0.1-0.3-0.3-0.3-0.4C0,24.8,0,24.6,0,24.4
	c0-0.2,0-0.5,0.2-0.7c0.1-0.2,0.2-0.3,0.3-0.4C0.7,23.1,0.8,23.1,1,23l0.6-0.1c0.2,0,0.4,0,0.6-0.1c0.2,0,0.3,0,0.5-0.1
	c0.1,0,0.2-0.1,0.3-0.2c0.1-0.1,0.1-0.2,0.1-0.3c0-0.1,0-0.2-0.1-0.4c0-0.1-0.1-0.2-0.2-0.2c-0.1,0-0.2-0.1-0.3-0.1
	c-0.1,0-0.2,0-0.3,0c-0.2,0-0.4,0-0.6,0.2c-0.2,0.1-0.3,0.3-0.3,0.6L0.2,22.3L0.2,22.3L0.2,22.3z M3.1,23.3c-0.1,0-0.1,0.1-0.2,0.1
	c-0.1,0-0.2,0.1-0.3,0.1c-0.1,0-0.2,0-0.3,0s-0.2,0-0.3,0c-0.1,0-0.2,0-0.3,0.1c-0.1,0-0.2,0.1-0.2,0.1c-0.1,0-0.1,0.1-0.2,0.2
	c-0.1,0.2-0.1,0.4,0,0.6c0,0.1,0.1,0.1,0.2,0.2c0.1,0,0.2,0.1,0.3,0.1c0.1,0,0.2,0,0.3,0c0.2,0,0.4,0,0.6-0.1
	C2.8,24.8,3,24.7,3,24.6c0.1-0.1,0.1-0.2,0.1-0.4c0-0.1,0-0.2,0-0.3L3.1,23.3L3.1,23.3L3.1,23.3z M6.7,19v2.5l0,0
	c0.2-0.2,0.4-0.4,0.7-0.6c0.3-0.1,0.6-0.2,0.9-0.2c0.2,0,0.5,0,0.7,0.2c0.2,0.1,0.5,0.3,0.6,0.5c0.2,0.2,0.4,0.5,0.5,0.8
	c0.2,0.8,0.2,1.5,0,2.3c-0.1,0.3-0.3,0.6-0.5,0.8c-0.2,0.2-0.4,0.4-0.6,0.5c-0.2,0.1-0.5,0.2-0.7,0.2c-0.3,0-0.6,0-0.9-0.2
	c-0.3-0.1-0.5-0.3-0.6-0.6l0,0v0.6H5.5V19L6.7,19L6.7,19z M8.8,22.7c0-0.2-0.1-0.4-0.2-0.5c-0.1-0.2-0.2-0.3-0.3-0.4
	c-0.3-0.2-0.7-0.2-1,0C7.1,21.9,7,22,6.9,22.2c-0.1,0.2-0.2,0.3-0.2,0.5c-0.1,0.4-0.1,0.8,0,1.2c0,0.2,0.1,0.4,0.2,0.5
	c0.1,0.2,0.2,0.3,0.3,0.4c0.3,0.2,0.7,0.2,1,0c0.1-0.1,0.3-0.2,0.3-0.4c0.1-0.2,0.2-0.3,0.2-0.5c0-0.2,0.1-0.4,0.1-0.6
	C8.9,23.1,8.9,22.9,8.8,22.7L8.8,22.7z M13.3,21.7c-0.2,0-0.4,0-0.5,0.2c-0.2,0.1-0.3,0.2-0.4,0.4c-0.1,0.2-0.2,0.3-0.2,0.5
	c0,0.2,0,0.4,0,0.6c0,0.2,0,0.4,0,0.6c0,0.2,0.1,0.4,0.2,0.5c0.1,0.1,0.2,0.3,0.4,0.4c0.2,0.1,0.3,0.1,0.5,0.2
	c0.3,0,0.5-0.1,0.7-0.3c0.2-0.2,0.3-0.5,0.3-0.7h1.2c0,0.6-0.3,1.1-0.7,1.5c-0.4,0.4-1,0.5-1.6,0.5c-0.3,0-0.7-0.1-1-0.2
	c-0.3-0.1-0.5-0.3-0.7-0.5c-0.2-0.2-0.4-0.5-0.5-0.8c-0.1-0.3-0.2-0.7-0.2-1c0-0.4,0-0.7,0.2-1.1c0.1-0.3,0.3-0.6,0.5-0.8
	c0.2-0.2,0.5-0.4,0.8-0.6c0.3-0.1,0.7-0.2,1-0.2c0.3,0,0.5,0,0.8,0.1c0.3,0.1,0.5,0.2,0.7,0.4c0.2,0.2,0.4,0.4,0.5,0.6
	c0.1,0.3,0.2,0.5,0.2,0.8h-1.3C14.3,22.1,13.8,21.7,13.3,21.7L13.3,21.7z M15.9,21.6v-0.7h0.8v-0.7c0-0.3,0.1-0.7,0.3-0.9
	c0.3-0.2,0.6-0.3,1-0.3h0.2c0.1,0,0.2,0,0.2,0v0.8c-0.1,0-0.2,0-0.2,0H18c-0.2,0-0.3,0-0.4,0.1c-0.1,0.1-0.2,0.3-0.2,0.4v0.7h0.9
	v0.7h-0.9v4.2h-0.8v-4.2L15.9,21.6L15.9,21.6z M19.1,20v-1h0.8v1L19.1,20L19.1,20z M19.9,20.8v4.9h-0.8v-4.9L19.9,20.8L19.9,20.8z
	 M21.8,20.8v0.8l0,0c0.3-0.6,0.9-0.9,1.6-0.9c0.3,0,0.5,0,0.8,0.1c0.2,0.1,0.4,0.2,0.5,0.4c0.1,0.2,0.2,0.4,0.3,0.6
	c0,0.2,0.1,0.5,0.1,0.7v3.2h-0.8v-3.3c0-0.3-0.1-0.5-0.3-0.7c-0.2-0.2-0.4-0.3-0.7-0.3c-0.2,0-0.4,0-0.6,0.1
	c-0.2,0.1-0.3,0.2-0.4,0.3c-0.1,0.1-0.2,0.3-0.3,0.5c0,0.2-0.1,0.4-0.1,0.6v2.8h-0.8v-4.9L21.8,20.8L21.8,20.8z M30.4,25.7
	c-0.2,0.1-0.4,0.1-0.5,0.1c-0.2,0-0.3,0-0.5-0.2c-0.1-0.2-0.2-0.4-0.2-0.6c-0.2,0.3-0.4,0.4-0.7,0.6c-0.3,0.1-0.6,0.2-0.9,0.2
	c-0.2,0-0.4,0-0.6-0.1c-0.2,0-0.4-0.1-0.5-0.2c-0.1-0.1-0.3-0.3-0.3-0.4c-0.1-0.2-0.1-0.4-0.1-0.6c0-0.2,0-0.5,0.2-0.7
	c0.1-0.2,0.2-0.3,0.3-0.4c0.1-0.1,0.3-0.2,0.5-0.2c0.2,0,0.4-0.1,0.6-0.2s0.4-0.1,0.6-0.1s0.3,0,0.5-0.1c0.1,0,0.3-0.1,0.3-0.2
	c0.1-0.1,0.1-0.2,0.1-0.4c0-0.1,0-0.3-0.1-0.4c-0.1-0.1-0.1-0.2-0.2-0.2c-0.1,0-0.2-0.1-0.3-0.1c-0.1,0-0.2,0-0.4,0
	c-0.3,0-0.6,0.1-0.8,0.2c-0.2,0.1-0.4,0.4-0.3,0.7h-0.8c0-0.3,0.1-0.5,0.2-0.8c0.1-0.2,0.3-0.4,0.4-0.5c0.2-0.1,0.4-0.2,0.6-0.3
	c0.2,0,0.5-0.1,0.7-0.1c0.2,0,0.4,0,0.6,0c0.2,0,0.4,0.1,0.6,0.2c0.2,0.1,0.3,0.2,0.4,0.4c0.1,0.2,0.2,0.4,0.2,0.7v2.5
	c0,0.1,0,0.3,0,0.4c0,0.1,0.1,0.1,0.2,0.1c0.1,0,0.2,0,0.2,0L30.4,25.7L30.4,25.7L30.4,25.7z M29.1,23.2c-0.1,0.1-0.3,0.1-0.4,0.2
	c-0.2,0-0.3,0.1-0.5,0.1c-0.2,0-0.3,0-0.5,0.1c-0.2,0-0.3,0.1-0.5,0.1c-0.1,0.1-0.3,0.2-0.3,0.3c-0.1,0.1-0.1,0.3-0.1,0.5
	c0,0.1,0,0.2,0.1,0.3c0.1,0.1,0.1,0.2,0.2,0.2c0.1,0,0.2,0.1,0.3,0.1c0.1,0,0.2,0,0.3,0c0.2,0,0.4,0,0.7-0.1
	c0.2-0.1,0.3-0.2,0.5-0.3c0.1-0.1,0.2-0.2,0.3-0.4c0-0.1,0.1-0.2,0.1-0.4L29.1,23.2L29.1,23.2L29.1,23.2z M31.8,20.8v0.8l0,0
	c0.3-0.6,0.9-0.9,1.6-0.9c0.3,0,0.5,0,0.8,0.1c0.2,0.1,0.4,0.2,0.5,0.4c0.1,0.2,0.2,0.4,0.3,0.6c0,0.2,0.1,0.5,0.1,0.7v3.2h-0.8
	v-3.3c0-0.3-0.1-0.5-0.3-0.7c-0.2-0.2-0.4-0.3-0.7-0.3c-0.2,0-0.4,0-0.6,0.1c-0.2,0.1-0.3,0.2-0.4,0.3c-0.1,0.1-0.2,0.3-0.3,0.5
	c0,0.2-0.1,0.4-0.1,0.6v2.8h-0.8v-4.9L31.8,20.8L31.8,20.8z M39,21.7c-0.2-0.2-0.5-0.2-0.8-0.2c-0.2,0-0.5,0-0.7,0.2
	c-0.2,0.1-0.4,0.3-0.5,0.4c-0.1,0.2-0.2,0.4-0.2,0.6c0,0.2-0.1,0.5-0.1,0.7c0,0.2,0,0.5,0.1,0.7c0,0.2,0.1,0.4,0.2,0.6
	c0.1,0.2,0.3,0.3,0.4,0.4c0.2,0.1,0.4,0.2,0.6,0.2c0.3,0,0.6-0.1,0.9-0.3c0.2-0.2,0.4-0.5,0.4-0.9h0.8c0,0.5-0.3,1-0.7,1.4
	c-0.4,0.3-0.9,0.5-1.4,0.5c-0.3,0-0.7-0.1-1-0.2c-0.3-0.1-0.5-0.3-0.7-0.5c-0.2-0.2-0.3-0.5-0.4-0.8c-0.1-0.3-0.1-0.7-0.2-1
	c0-0.3,0-0.7,0.2-1c0.1-0.3,0.2-0.6,0.4-0.8c0.2-0.2,0.4-0.4,0.7-0.6c0.3-0.1,0.6-0.2,1-0.2c0.2,0,0.5,0,0.7,0.1
	c0.2,0.1,0.4,0.2,0.6,0.3c0.2,0.1,0.3,0.3,0.4,0.5c0.1,0.2,0.2,0.5,0.2,0.8h-0.8C39.3,22.1,39.2,21.8,39,21.7L39,21.7z M44.4,25.4
	c-0.4,0.3-0.8,0.4-1.3,0.4c-0.3,0-0.7-0.1-1-0.2c-0.3-0.1-0.5-0.3-0.7-0.5c-0.2-0.2-0.3-0.5-0.4-0.8c-0.1-0.3-0.1-0.7-0.2-1
	c0-0.3,0-0.7,0.2-1c0.1-0.3,0.3-0.6,0.5-0.8c0.2-0.2,0.4-0.4,0.7-0.5c0.3-0.1,0.6-0.2,0.9-0.2c0.4,0,0.7,0.1,1,0.3
	c0.3,0.2,0.5,0.4,0.7,0.7c0.2,0.3,0.3,0.6,0.3,0.9c0.1,0.3,0.1,0.6,0.1,0.9h-3.5c0,0.2,0,0.4,0.1,0.6c0.1,0.2,0.2,0.4,0.3,0.5
	c0.1,0.2,0.3,0.3,0.5,0.4c0.2,0.1,0.4,0.1,0.7,0.1c0.3,0,0.6-0.1,0.8-0.2c0.2-0.2,0.4-0.4,0.4-0.7h0.8
	C45.1,24.6,44.8,25.1,44.4,25.4L44.4,25.4z M44.2,22.3c-0.1-0.2-0.2-0.3-0.3-0.4c-0.1-0.1-0.3-0.2-0.4-0.3c-0.3-0.2-0.7-0.2-1.1,0
	c-0.2,0.1-0.3,0.2-0.4,0.3c-0.1,0.1-0.2,0.3-0.3,0.4c-0.1,0.2-0.1,0.3-0.1,0.5h2.7C44.3,22.6,44.3,22.4,44.2,22.3L44.2,22.3z
	 M47.2,24.7v1h-1v-1L47.2,24.7L47.2,24.7z M52.7,25.7c-0.2,0.1-0.4,0.1-0.5,0.1c-0.2,0-0.3,0-0.5-0.2c-0.1-0.2-0.2-0.4-0.2-0.6
	c-0.2,0.3-0.4,0.4-0.7,0.6c-0.3,0.1-0.6,0.2-0.9,0.2c-0.2,0-0.4,0-0.6-0.1c-0.2,0-0.4-0.1-0.5-0.2c-0.1-0.1-0.3-0.3-0.3-0.4
	c-0.1-0.2-0.1-0.4-0.1-0.6c0-0.2,0-0.5,0.2-0.7c0.1-0.2,0.2-0.3,0.3-0.4c0.1-0.1,0.3-0.2,0.5-0.2c0.2,0,0.4-0.1,0.6-0.2
	s0.4-0.1,0.6-0.1s0.3,0,0.5-0.1c0.1,0,0.3-0.1,0.3-0.2c0.1-0.1,0.1-0.2,0.1-0.4c0-0.1,0-0.3-0.1-0.4c-0.1-0.1-0.1-0.2-0.2-0.2
	c-0.1,0-0.2-0.1-0.3-0.1c-0.1,0-0.2,0-0.4,0c-0.3,0-0.6,0.1-0.8,0.2c-0.2,0.1-0.4,0.4-0.3,0.7h-0.8c0-0.3,0.1-0.5,0.2-0.8
	c0.1-0.2,0.3-0.4,0.4-0.5c0.2-0.1,0.4-0.2,0.6-0.3c0.2,0,0.5-0.1,0.7-0.1c0.2,0,0.4,0,0.6,0c0.2,0,0.4,0.1,0.6,0.2
	c0.2,0.1,0.3,0.2,0.4,0.4c0.1,0.2,0.2,0.4,0.2,0.7v2.5c0,0.1,0,0.3,0,0.4c0,0.1,0.1,0.1,0.2,0.1c0.1,0,0.2,0,0.2,0L52.7,25.7
	L52.7,25.7L52.7,25.7z M51.4,23.2c-0.1,0.1-0.3,0.1-0.4,0.2c-0.2,0-0.3,0.1-0.5,0.1c-0.2,0-0.3,0-0.5,0.1c-0.2,0-0.3,0.1-0.5,0.1
	c-0.3,0.1-0.5,0.4-0.5,0.8c0,0.1,0,0.2,0.1,0.3c0.1,0.1,0.1,0.2,0.2,0.2c0.1,0,0.2,0.1,0.3,0.1c0.1,0,0.2,0,0.3,0
	c0.2,0,0.5,0,0.7-0.1c0.2-0.1,0.3-0.2,0.5-0.3c0.1-0.1,0.2-0.2,0.3-0.4c0-0.1,0.1-0.2,0.1-0.4L51.4,23.2L51.4,23.2L51.4,23.2z
	 M54.1,20.8v0.7l0,0c0.3-0.5,0.9-0.9,1.5-0.8c0.3,0,0.5,0.1,0.8,0.2c0.2,0.1,0.4,0.4,0.5,0.6c0.3-0.5,0.9-0.9,1.5-0.8
	c0.2,0,0.4,0,0.7,0.1c0.2,0,0.4,0.1,0.5,0.2c0.1,0.1,0.2,0.3,0.3,0.4c0.1,0.2,0.1,0.4,0.1,0.6v3.6h-0.8v-3.2c0-0.1,0-0.3,0-0.4
	c0-0.1-0.1-0.2-0.2-0.4c-0.1-0.1-0.2-0.2-0.3-0.2c-0.1-0.1-0.3-0.1-0.5-0.1c-0.3,0-0.7,0.1-0.9,0.4c-0.2,0.2-0.3,0.6-0.3,0.9v3h-0.8
	v-3.2c0-0.1,0-0.3,0-0.4c0-0.1-0.1-0.2-0.2-0.4c-0.1-0.1-0.2-0.2-0.3-0.2c-0.1,0-0.3-0.1-0.4-0.1c-0.2,0-0.4,0-0.6,0.2
	c-0.2,0.1-0.3,0.2-0.4,0.4c-0.1,0.1-0.1,0.3-0.2,0.4c0,0.1-0.1,0.2-0.1,0.4v3h-0.8v-4.9L54.1,20.8L54.1,20.8z"/>
<path id="Прямоугольник_686" class="st3" d="M58.3,0L58.3,0C54.8,10.6,42,14.8,42,14.8c-0.1,1.1,0.6,2.1,1.7,2.3h14.6
	c1.1-0.2,1.8-1.2,1.7-2.3V2.2c0.1-0.9-0.4-1.8-1.3-2.2C58.6,0,58.5,0,58.3,0L58.3,0"/>
<path id="Прямоугольник_685" class="st4" d="M37.3,0L37.3,0C33.8,10.6,21,14.8,21,14.8c-0.1,1.1,0.6,2.1,1.7,2.3h14.6
	c1.1-0.2,1.8-1.2,1.7-2.3V2.2c0.1-0.9-0.4-1.8-1.3-2.2C37.6,0,37.5,0,37.3,0L37.3,0"/>
</svg>
