<svg xmlns="http://www.w3.org/2000/svg" width="541.128" height="541.32" viewBox="0 0 90.188 90.22">
  <metadata><?xpacket begin="﻿" id="W5M0MpCehiHzreSzNTczkc9d"?>
<x:xmpmeta xmlns:x="adobe:ns:meta/" x:xmptk="Adobe XMP Core 5.6-c138 79.159824, 2016/09/14-01:09:01        ">
   <rdf:RDF xmlns:rdf="http://www.w3.org/1999/02/22-rdf-syntax-ns#">
      <rdf:Description rdf:about=""/>
   </rdf:RDF>
</x:xmpmeta>
                                                                                                    
                                                                                                    
                                                                                                    
                                                                                                    
                                                                                                    
                                                                                                    
                                                                                                    
                                                                                                    
                                                                                                    
                                                                                                    
                                                                                                    
                                                                                                    
                                                                                                    
                                                                                                    
                                                                                                    
                                                                                                    
                                                                                                    
                                                                                                    
                                                                                                    
                                                                                                    
                           
<?xpacket end="w"?></metadata>
<defs>
    <style>
      .cls-1 {
        fill: #333c84;
        stroke: #1b1b1b;
        stroke-width: 0.2px;
        fill-rule: evenodd;
      }
    </style>
  </defs>
  <path id="Фигура_50" data-name="Фигура 50" class="cls-1" d="M712.375,1157.93l-19.737,6.11c0.016-.16.049-0.32,0.049-0.48a5.629,5.629,0,0,0-5.625-5.63H674.654l-15.469-5.63h-11.5a2.814,2.814,0,0,0-2.812-2.81H628v2.81h16.875v25.32H628v2.82h16.875a2.822,2.822,0,0,0,2.812-2.82h5.385l23.906,8.44h3.4l35.462-18.44,0.347-.26a6.178,6.178,0,0,0,1.817-3.8A5.63,5.63,0,0,0,712.375,1157.93Zm1.949,7.3-34.636,18.02h-2.229l-23.906-8.44h-5.866v-19.69h11l15.469,5.62h12.9a2.815,2.815,0,0,1,0,5.63H671.594a5.629,5.629,0,0,0-5.625,5.63h2.812a2.817,2.817,0,0,1,2.813-2.82h15.468a5.585,5.585,0,0,0,4.035-1.72l21.472-6.71a2.816,2.816,0,0,1,2.618,2.81A3.287,3.287,0,0,1,714.324,1165.23ZM639.25,1172h2.812v2.81H639.25V1172Zm-5.625,0h2.812v2.81h-2.812V1172Zm22.5-25.32c0-27.82,18.1-28.14,18.281-28.14h11.25c3.862,0,18.281,4.78,18.281,28.14v11.25h2.813v-11.25c0-20.83-10.93-28.23-17.443-30.28a4.146,4.146,0,0,0-1.641-5.76l4.874-9.75a1.406,1.406,0,0,0-.629-1.89l-5.625-2.82a1.459,1.459,0,0,0-1.258,0l-5,2.5-5-2.49a1.4,1.4,0,0,0-1.259,0l-5.625,2.81a1.408,1.408,0,0,0-.628,1.89l4.874,9.75a4.145,4.145,0,0,0-1.671,5.71c-6.044,1.64-17.414,7.75-17.414,30.33v2.81h2.813v-2.81Zm18.281-47.66,5,2.49a1.394,1.394,0,0,0,1.258,0l5-2.49,3.738,1.87-4.607,9.21h-9.512l-4.607-9.21ZM673,1114.32a1.405,1.405,0,0,1,1.406-1.4h11.25a1.405,1.405,0,1,1,0,2.81h-11.25A1.408,1.408,0,0,1,673,1114.32Zm3.968,15.41a6.064,6.064,0,0,0-5.962,6.14,1.221,1.221,0,1,0,2.44,0,3.524,3.524,0,1,1,7.045,0v1.54h-2.845a1.256,1.256,0,0,0,0,2.51h2.845v1.67h-2.845a1.261,1.261,0,0,0,0,2.52h2.845v2.93a1.22,1.22,0,1,0,2.44,0v-2.93h2.845a1.261,1.261,0,0,0,0-2.52h-2.845v-1.67h2.845a1.256,1.256,0,0,0,0-2.51h-2.845v-1.54a6.063,6.063,0,0,0-5.963-6.14" transform="translate(-627.906 -1095.94)"/>
</svg>
