<svg xmlns="http://www.w3.org/2000/svg" width="542.4" height="386.4" viewBox="0 0 90.4 64.4">
  <metadata><?xpacket begin="﻿" id="W5M0MpCehiHzreSzNTczkc9d"?>
<x:xmpmeta xmlns:x="adobe:ns:meta/" x:xmptk="Adobe XMP Core 5.6-c138 79.159824, 2016/09/14-01:09:01        ">
   <rdf:RDF xmlns:rdf="http://www.w3.org/1999/02/22-rdf-syntax-ns#">
      <rdf:Description rdf:about=""/>
   </rdf:RDF>
</x:xmpmeta>
                                                                                                    
                                                                                                    
                                                                                                    
                                                                                                    
                                                                                                    
                                                                                                    
                                                                                                    
                                                                                                    
                                                                                                    
                                                                                                    
                                                                                                    
                                                                                                    
                                                                                                    
                                                                                                    
                                                                                                    
                                                                                                    
                                                                                                    
                                                                                                    
                                                                                                    
                                                                                                    
                           
<?xpacket end="w"?></metadata>
<defs>
    <style>
      .cls-1 {
        fill: #333c84;
        stroke: #fff;
        stroke-width: 0.4px;
        fill-rule: evenodd;
      }
    </style>
  </defs>
  <path id="Фигура_51" data-name="Фигура 51" class="cls-1" d="M1518,1374.67v10.41a12.13,12.13,0,0,1-7.5,11.18v3.38a9.375,9.375,0,0,1-18.75,0v-2.44h-37.5v2.44a9.375,9.375,0,0,1-18.75,0v-3.38a12.13,12.13,0,0,1-7.5-11.18V1374.5a7.236,7.236,0,0,1,4.68-6.79l0.39-.15a21.591,21.591,0,0,1-2.99-2.01,1.858,1.858,0,0,1-.26-2.62,1.883,1.883,0,0,1,2.64-.26,22.694,22.694,0,0,0,5.24,3.02l7.12-15.16a9.749,9.749,0,0,1,8.77-5.55h38.79a9.73,9.73,0,0,1,8.79,5.59l7.02,15.13,0.13,0.05a23.691,23.691,0,0,0,5.21-2.94,1.865,1.865,0,0,1,2.32,2.92,21.957,21.957,0,0,1-2.98,1.95l0.69,0.29A7.276,7.276,0,0,1,1518,1374.67Zm-22.5,24.97a5.625,5.625,0,0,0,11.25,0v-2.49c-0.31.02-.62,0.05-0.94,0.05H1495.5v2.44Zm-56.25,0a5.625,5.625,0,0,0,11.25,0v-2.44h-10.31c-0.32,0-.63-0.03-0.94-0.05v2.49Zm58.51-47.51a5.92,5.92,0,0,0-5.38-3.43l-38.79.01a5.945,5.945,0,0,0-5.37,3.4l-7.02,14.93c8.1,2.72,19.62,4.37,31.88,4.37,12.1,0,23.53-1.62,31.64-4.3Zm14.32,19.27-3.8-1.62c-8.65,3.35-21.39,5.35-35.2,5.35-13.91,0-26.66-2.02-35.31-5.39l-3.74,1.44a3.551,3.551,0,0,0-2.28,3.32v10.58a8.425,8.425,0,0,0,8.44,8.39h65.62a8.425,8.425,0,0,0,8.44-8.39v-10.41A3.534,3.534,0,0,0,1512.08,1371.4Zm-9.31,16.7a5.6,5.6,0,1,1,5.62-5.59A5.608,5.608,0,0,1,1502.77,1388.1Zm0-7.46a1.865,1.865,0,1,0,1.87,1.87A1.882,1.882,0,0,0,1502.77,1380.64Zm-14.77,5.37h-30a1.865,1.865,0,1,1,0-3.73h30A1.865,1.865,0,1,1,1488,1386.01Zm-45.24,2.09a5.6,5.6,0,1,1,5.63-5.59A5.606,5.606,0,0,1,1442.76,1388.1Zm0-7.46a1.865,1.865,0,1,0,1.88,1.87A1.88,1.88,0,0,0,1442.76,1380.64Zm9.03-15.8a1.92,1.92,0,0,1-1.29.5,1.894,1.894,0,0,1-1.36-.58,1.866,1.866,0,0,1,.07-2.64l11.41-10.72a1.869,1.869,0,0,1,2.65.08,1.845,1.845,0,0,1-.08,2.63Zm-0.05-7.11a1.9,1.9,0,0,1-2.65-.17,1.866,1.866,0,0,1,.16-2.63l4.07-3.57a1.866,1.866,0,1,1,2.48,2.79Z" transform="translate(-1427.8 -1344.77)"/>
</svg>
